<?xml version="1.0" encoding="utf-8"?>
<!-- Generator: Adobe Illustrator 24.0.2, SVG Export Plug-In . SVG Version: 6.00 Build 0)  -->
<svg version="1.1" id="Warstwa_1" xmlns="http://www.w3.org/2000/svg" xmlns:xlink="http://www.w3.org/1999/xlink" x="0px" y="0px"
	 viewBox="0 0 3840 2160" style="enable-background:new 0 0 3840 2160;" xml:space="preserve">
<style type="text/css">
	.st0{fill:#829098;}
	.st1{fill:#A2D5E2;}
	.st2{fill:#A14D17;stroke:#020203;stroke-width:5;stroke-miterlimit:10;}
	.st3{fill:#72CBF4;stroke:#020203;stroke-width:5;stroke-miterlimit:10;}
	.st4{fill:none;stroke:#020203;stroke-width:5;stroke-miterlimit:10;}
	.st5{fill:#F3904D;stroke:#000000;stroke-width:4;stroke-miterlimit:10;}
	.st6{fill:#41B6A2;stroke:#020203;stroke-width:4;stroke-miterlimit:10;}
	.st7{fill:#3DAEE4;stroke:#020203;stroke-width:4;stroke-miterlimit:10;}
	.st8{enable-background:new    ;}
	.st9{fill:#FFFFFF;}
	.st10{fill:none;stroke:#020203;stroke-width:4;stroke-miterlimit:10;}
	.st11{fill:#020203;}
	.st12{fill:none;stroke:#020203;stroke-width:3;stroke-miterlimit:10;}
	.st13{fill:#41B6A2;stroke:#020203;stroke-width:3;stroke-miterlimit:10;}
	.st14{fill:#3FAEE3;stroke:#020203;stroke-width:3;stroke-miterlimit:10;}
	.st15{fill:#CF8958;stroke:#020203;stroke-width:4;stroke-miterlimit:10;}
	.st16{fill:#7B3A11;stroke:#020203;stroke-width:4;stroke-miterlimit:10;}
	.st17{fill:#B67D37;stroke:#020203;stroke-width:2.9070895;stroke-miterlimit:10;}
	.st18{fill:#207834;stroke:#020203;stroke-width:2.9070895;stroke-miterlimit:10;}
	.st19{fill:none;stroke:#020203;stroke-width:0.5256547;stroke-miterlimit:10;}
	.st20{fill:#EDD3BA;}
	.st21{fill:#EDD3BA;stroke:#020203;stroke-width:2.62853;stroke-miterlimit:10;}
	.st22{fill:#FFFFFF;stroke:#020203;stroke-width:2.6285303;stroke-miterlimit:10.000001;}
	.st23{fill:#A01915;}
	.st24{fill:#5B6895;stroke:#020203;stroke-width:2.6281593;stroke-miterlimit:10;}
	.st25{fill:#FFFFFF;stroke:#020203;stroke-width:2.6281593;stroke-linejoin:round;stroke-miterlimit:10;}
	.st26{fill:#EDD3BA;stroke:#020203;stroke-width:2.6281593;stroke-miterlimit:10;}
	.st27{fill:#FFFFFF;stroke:#020203;stroke-width:2.6281593;stroke-miterlimit:10;}
	.st28{fill:#412413;stroke:#020203;stroke-width:2.62853;stroke-miterlimit:10;}
	.st29{fill:#EED4BA;}
	.st30{fill:#A14D17;stroke:#020203;stroke-width:3.5253565;stroke-miterlimit:10;}
	.st31{fill:#FFFFFF;stroke:#020203;stroke-width:3.5253565;stroke-miterlimit:10;}
	.st32{fill:#7B3A11;stroke:#020203;stroke-width:3.5253565;stroke-miterlimit:10;}
	.st33{fill:#412413;stroke:#020203;stroke-width:2.4663396;stroke-miterlimit:10;}
	.st34{fill:#4BB79E;stroke:#020203;stroke-width:2.4663396;stroke-miterlimit:10;}
	.st35{fill:#DF6810;stroke:#020203;stroke-width:2.4663396;stroke-linejoin:round;stroke-miterlimit:10;}
	.st36{fill:#EDD3BA;stroke:#020203;stroke-width:2.4663396;stroke-miterlimit:10;}
	.st37{fill:#DF6810;stroke:#020203;stroke-width:2.4663396;stroke-miterlimit:10;}
	.st38{fill:#F7CA67;stroke:#020203;stroke-width:2.1773162;stroke-miterlimit:10;}
	.st39{fill:#7B3A11;stroke:#020203;stroke-width:3.5429652;stroke-miterlimit:10;}
	.st40{fill:#FFFFFF;stroke:#020203;stroke-width:3.5429652;stroke-miterlimit:10;}
	.st41{fill:#7D4E24;stroke:#020203;stroke-width:2.1773162;stroke-miterlimit:10;}
	.st42{fill:#412413;stroke:#020203;stroke-width:2.3121932;stroke-miterlimit:10;}
	.st43{fill:#EDD3BA;stroke:#020203;stroke-width:2.3121932;stroke-miterlimit:10;}
	.st44{fill:#603914;stroke:#020203;stroke-width:2.3121932;stroke-miterlimit:10;}
	.st45{fill:#9B4717;stroke:#020203;stroke-width:2.3121932;stroke-linejoin:round;stroke-miterlimit:10;}
	.st46{fill:#257FC3;stroke:#020203;stroke-width:2.3121932;stroke-linejoin:round;stroke-miterlimit:10;}
	.st47{fill:none;stroke:#020203;stroke-width:2.3121932;stroke-miterlimit:10;}
	.st48{fill:#F7CA67;stroke:#020203;stroke-width:2.4082556;stroke-miterlimit:10;}
	.st49{fill:#020203;stroke:#020203;stroke-width:6.0841966;stroke-miterlimit:10;}
	.st50{fill:#B17F4A;stroke:#020203;stroke-width:2.3121932;stroke-miterlimit:10;}
	.st51{fill:#A14D17;stroke:#020203;stroke-width:4;stroke-miterlimit:10;}
	.st52{fill:#FFFFFF;stroke:#020203;stroke-width:4;stroke-miterlimit:10;}
	.st53{fill:#412413;stroke:#020203;stroke-width:2.7279346;stroke-miterlimit:10;}
	.st54{fill:#4BB79E;stroke:#020203;stroke-width:2.7279346;stroke-miterlimit:10;}
	.st55{fill:#DF6810;stroke:#020203;stroke-width:2.7279346;stroke-linejoin:round;stroke-miterlimit:10;}
	.st56{fill:#EDD3BA;stroke:#020203;stroke-width:2.7279346;stroke-miterlimit:10;}
	.st57{fill:#DF6810;stroke:#020203;stroke-width:2.7279346;stroke-miterlimit:10;}
	.st58{fill:#412413;stroke:#020203;stroke-width:2.6363163;stroke-miterlimit:10;}
	.st59{fill:#EDD3BA;stroke:#020203;stroke-width:2.6363163;stroke-miterlimit:10;}
	.st60{fill:#603914;stroke:#020203;stroke-width:2.6363163;stroke-miterlimit:10;}
	.st61{fill:#9B4717;stroke:#020203;stroke-width:2.6363163;stroke-linejoin:round;stroke-miterlimit:10;}
	.st62{fill:#257FC3;stroke:#020203;stroke-width:2.6363163;stroke-linejoin:round;stroke-miterlimit:10;}
	.st63{fill:none;stroke:#020203;stroke-width:2.6363163;stroke-miterlimit:10;}
</style>
<rect y="1283.0006104" class="st0" width="3843.0090332" height="876.9993896"/>
<rect class="st1" width="3843.0090332" height="1287.5"/>
<g>
	<rect x="2781" y="123.0005798" class="st2" width="904" height="673"/>
	<g>
		<rect x="2830.5" y="178.0005798" class="st3" width="157" height="252.5"/>
		<rect x="3022.5" y="178.0005798" class="st3" width="157" height="252.5"/>
		<rect x="2830.5" y="461.5005798" class="st3" width="157" height="287.0000305"/>
		<rect x="3022.5" y="461.5005798" class="st3" width="157" height="287.0000305"/>
	</g>
	<g>
		<rect x="3284.5" y="178.0005798" class="st3" width="157" height="252.5"/>
		<rect x="3476.5" y="178.0005798" class="st3" width="157" height="252.5"/>
		<rect x="3284.5" y="461.5005798" class="st3" width="157" height="287.0000305"/>
		<rect x="3476.5" y="461.5005798" class="st3" width="157" height="287.0000305"/>
	</g>
	<line class="st4" x1="3233" y1="123.0005798" x2="3233" y2="796.9872437"/>
</g>
<g>
	<rect x="70.5" y="239.5005798" class="st5" width="584" height="639"/>
	<g>
		<rect x="121.5" y="282.5005798" class="st6" width="162" height="181"/>
		<rect x="283.5" y="282.5005798" class="st7" width="162" height="181"/>
		<rect x="445.5" y="282.5005798" class="st6" width="162" height="181"/>
	</g>
	<g>
		<rect x="121.5" y="658.5006104" class="st6" width="162" height="181"/>
		<rect x="283.5" y="658.5006104" class="st7" width="162" height="181"/>
		<rect x="445.5" y="658.5006104" class="st6" width="162" height="181"/>
	</g>
	<g class="st8">
		<path class="st9" d="M211.6342773,524.5078125h12.4516602l5.5517578,39.7353516h0.1586914l5.5517578-39.7353516h12.4521484
			v55.5185547h-8.2485352v-42.0351563h-0.1586914l-6.3447266,42.0351563h-7.296875l-6.3447266-42.0351563h-0.1586914v42.0351563
			h-7.6137695V524.5078125z"/>
		<path class="st9" d="M261.0449219,524.5078125h11.8173828l9.0415039,55.5185547h-8.7241211l-1.5859375-11.0244141v0.1591797
			h-9.9140625l-1.5864258,10.8652344h-8.0898438L261.0449219,524.5078125z M270.5625,561.6259766l-3.8862305-27.4414063h-0.1586914
			l-3.8071289,27.4414063H270.5625z"/>
		<path class="st9" d="M289.2797852,532.4394531h-9.1210938v-7.9316406H307.125v7.9316406h-9.1210938v47.5869141h-8.7241211
			V532.4394531z"/>
		<path class="st9" d="M311.328125,524.5078125h23.793457v7.9316406h-15.0693359v14.6728516h11.9760742v7.9306641h-11.9760742
			v17.0517578h15.0693359v7.9316406h-23.793457V524.5078125z"/>
		<path class="st9" d="M340.1176758,524.5078125h12.4516602l5.5517578,39.7353516h0.1586914l5.5517578-39.7353516h12.4521484
			v55.5185547h-8.2485352v-42.0351563h-0.1586914l-6.3447266,42.0351563h-7.296875l-6.3447266-42.0351563h-0.1586914v42.0351563
			h-7.6137695V524.5078125z"/>
		<path class="st9" d="M389.5283203,524.5078125h11.8173828l9.0415039,55.5185547h-8.7241211l-1.5859375-11.0244141v0.1591797
			h-9.9140625l-1.5864258,10.8652344h-8.0898438L389.5283203,524.5078125z M399.0458984,561.6259766l-3.8862305-27.4414063
			h-0.1586914l-3.8071289,27.4414063H399.0458984z"/>
		<path class="st9" d="M417.7631836,532.4394531h-9.1210938v-7.9316406h26.9663086v7.9316406h-9.1210938v47.5869141h-8.7241211
			V532.4394531z"/>
		<path class="st9" d="M448.1391602,556.3916016l-10.5483398-31.8837891h9.2792969l5.9487305,20.3837891h0.1582031
			l5.9487305-20.3837891h8.4863281l-10.5488281,31.8837891v23.6347656h-8.7241211V556.3916016z"/>
		<path class="st9" d="M471.3774414,524.5078125h8.7241211v23.3974609l11.1035156-23.3974609h8.7246094l-10.3901367,20.3837891
			l10.5488281,35.1347656h-9.1210938l-7.3759766-24.7451172l-3.4897461,7.0585938v17.6865234h-8.7241211V524.5078125z"/>
		<path class="st9" d="M510.9526367,524.5078125h11.8173828l9.0415039,55.5185547h-8.7241211l-1.5859375-11.0244141v0.1591797
			h-9.9140625l-1.5864258,10.8652344h-8.0898438L510.9526367,524.5078125z M520.4702148,561.6259766l-3.8862305-27.4414063
			h-0.1586914l-3.8071289,27.4414063H520.4702148z"/>
	</g>
	<g>
		<polyline class="st10" points="70.5,239.5005798 362.5,65.5005798 654.5,239.5005798 		"/>
		<circle class="st11" cx="362.4281921" cy="65.5005798" r="6.5"/>
	</g>
</g>
<g>
	<g>
		<g>
			<polyline class="st12" points="801.541687,337.264679 884.1827393,287.5928955 966.541687,337.264679 			"/>
			<ellipse class="st11" cx="884.041687" cy="287.6345825" rx="4.0424805" ry="4.0914612"/>
		</g>
		<g>
			<rect x="802.2371826" y="337.264679" class="st13" width="163.6090698" height="180.9999695"/>
		</g>
	</g>
	<g>
		<g>
			<polyline class="st12" points="1380.5,228.0868073 1463.1409912,178.4150238 1545.5,228.0868073 			"/>
			<ellipse class="st11" cx="1463" cy="178.4567108" rx="4.0424805" ry="4.0914459"/>
		</g>
		<g>
			<rect x="1381.1954346" y="228.0868073" class="st13" width="163.6090088" height="180.9999847"/>
		</g>
	</g>
	<g>
		<g>
			<polyline class="st12" points="1125,445.2221375 1207.6409912,395.550354 1290,445.2221375 			"/>
			<ellipse class="st11" cx="1207.5" cy="395.592041" rx="4.0424805" ry="4.0914612"/>
		</g>
		<g>
			<rect x="1125.6954346" y="445.2221375" class="st14" width="163.6090088" height="181.0000305"/>
		</g>
	</g>
	<g>
		<ellipse class="st11" cx="949" cy="650.592041" rx="4.0424805" ry="4.0914307"/>
		<line class="st12" x1="866.5" y1="699.2647095" x2="948.8589478" y2="649.8783569"/>
		<line class="st12" x1="1031.5" y1="699.2647095" x2="949.1410522" y2="649.5928955"/>
		<rect x="867.5" y="699.5006104" class="st7" width="162" height="181"/>
	</g>
</g>
<g>
	<g>
		<rect x="1682.25" y="1144.5006104" class="st15" width="743" height="250"/>
		<rect x="1656.75" y="1124.5006104" class="st16" width="794" height="20"/>
	</g>
	<path class="st15" d="M2164.7246094,1124.5006104c-1.0678711-60.3800049-50.3398438-109-110.9746094-109
		c-60.6348877,0-109.9068604,48.6199951-110.9747314,109H2164.7246094z"/>
</g>
<g>
	<rect x="1662.4417725" y="415.9934692" class="st17" width="784.3326416" height="537.8115845"/>
	<rect x="1677.5587158" y="432.2731628" class="st18" width="753.5177002" height="509.322052"/>
	<rect x="1642.673584" y="953.8050537" class="st17" width="826.1948242" height="14.5354614"/>
	<path class="st19" d="M1662.4417725,965.4334106"/>
	<polygon class="st17" points="2443.2861328,987.5272827 1662.4417725,987.5272827 1651.9763184,968.3404541 
		2453.751709,968.3404541 	"/>
</g>
<g>
	<path class="st11" d="M1576.0953369,820.3231201c-22.0456543-144.871582-148.0201416-135.2932129-148.0201416-135.2932129
		s-131.4289551-9.5783691-153.4746094,135.2932129c0,0,4.1988525,89.7963257-33.5933838,146.0687256
		c0,0,51.645874,56.2723999,201.7650146,39.510437c150.1193848,16.7619629,166.9160156-39.510437,166.9160156-39.510437
		C1571.8959961,910.1194458,1576.0953369,820.3231201,1576.0953369,820.3231201z"/>
	<path class="st20" d="M1411.0610352,1001.9992065l1.1108398,12.3612061l14.3192139,6.8513794l11.534668-1.7098389
		l9.7242432-16.5423584l-4.7368164-0.7927856l-10.6568604-0.4660034l-6.5081787-0.1251221
		c-0.1131592-0.0038452-0.2264404-0.0039063-0.3395996-0.0001831l-6.6896973,0.0744019L1411.0610352,1001.9992065z"/>
	<circle id="ucho_prawe_19_" class="st21" cx="1542.1745605" cy="867.2538452" r="26.8127441"/>
	<circle id="ucho_lewe_19_" class="st21" cx="1312.3513184" cy="867.2538452" r="26.8127441"/>
	<ellipse id="głowa_12_" class="st21" cx="1426.8630371" cy="852.2015381" rx="114.9116211" ry="134.0635986"/>
	<g>
		<g>
			
				<ellipse id="oko_prawe_3_" transform="matrix(0.9344582 -0.3560728 0.3560728 0.9344582 -201.1565094 576.5559082)" class="st22" cx="1465.5668945" cy="834.6955566" rx="35.4577675" ry="45.3071327"/>
			<ellipse id="zrenica_prawa_3_" class="st11" cx="1454.4587402" cy="838.5259399" rx="6.1286621" ry="7.6607666"/>
		</g>
		<g>
			
				<ellipse id="oko_lewe_3_" transform="matrix(0.3560728 -0.9344582 0.9344582 0.3560728 114.4005814 1835.4074707)" class="st22" cx="1388.9592285" cy="834.6954956" rx="45.3071327" ry="35.4577675"/>
			<ellipse id="zrenica_lewa_3_" class="st11" cx="1400.833252" cy="838.5259399" rx="6.1286621" ry="7.6607666"/>
		</g>
	</g>
	<g id="nos_5_">
		<path class="st11" d="M1406.3311768,892.0159912c3.4938965,1.4108887,6.7237549,2.649231,9.8950195,3.6044312
			c3.1889648,0.8995361,6.2641602,1.4963989,9.3059082,1.5866089c1.5203857,0.045105,3.0299072-0.0581055,4.5487061-0.2554932
			c1.5285645-0.1767578,3.0262451-0.5994263,4.5976563-0.9953613c3.0861816-0.958374,6.2130127-2.3776245,9.685791-3.9401855
			l0.270874,0.270813c-2.4914551,2.5916138-5.3895264,4.8374023-8.6577148,6.4188843
			c-3.2645264,1.5769653-6.9058838,2.4000854-10.5488281,2.3289795c-3.6444092-0.12677-7.2103271-1.1118774-10.4798584-2.6434937
			c-3.2755127-1.5352173-6.2973633-3.5768433-8.8883057-6.1043701L1406.3311768,892.0159912z"/>
	</g>
	<g id="usta_5_">
		<path class="st23" d="M1379.3830566,945.7768555c7.5872803,2.0756836,15.2318115,3.5953369,22.9095459,4.7382202
			c3.8453369,0.5263672,7.6881104,1.0202026,11.5488281,1.2953491c3.8552246,0.3103638,7.7156982,0.5392456,11.5784912,0.5491943
			c7.7231445,0.1179199,15.4440918-0.3787231,23.105957-1.4640503c7.6705322-1.0757446,15.230957-2.8933105,22.786499-5.1187134
			c-6.9481201,3.7027588-14.4898682,6.4006348-22.2542725,8.0599365l-2.916626,0.6162109l-2.9418945,0.475708
			c-0.9804688,0.1676636-1.96521,0.2989502-2.9525146,0.4124756c-0.9869385,0.1155396-1.9725342,0.257019-2.9620361,0.3509521
			c-3.9604492,0.3687744-7.9382324,0.4949341-11.913208,0.4953003c-3.9742432-0.0855103-7.9425049-0.3330078-11.8865967-0.7780151
			c-3.9379883-0.491333-7.864502-1.0768433-11.7275391-1.96521c-3.8720703-0.8355713-7.6883545-1.9057617-11.4399414-3.1469727
			C1386.5819092,949.0131226,1382.8786621,947.6095581,1379.3830566,945.7768555z"/>
	</g>
	<g>
		<path d="M1542.6202393,838.5591431c0-0.2964478-1.2038574-28.1130371-23.1986084-46.4416504
			c-22.7871094-18.9893188-29.9616699-28.8179932-29.9616699-28.8179932
			c-0.2962646-0.4445801-8.7102051-11.1184082-12.744873-27.7782593
			c-3.3426514,4.6507568-8.5994873,12.1960449-17.5506592,20.671936
			c-17.7955322,16.8505249-63.1052246,23.9431152-63.1052246,23.9431152s16.8710938-33.4852295,5.2219238-40.1481323
			c-6.6171875-3.78479-21.130127-0.8926392-44.3104248,26.2323608
			c-19.8309326,23.2055054-38.3244629,53.3557129-45.8818359,72.338623l-4.9814453-0.3109131
			c0,0,6.1361084-40.4844971,21.1907959-67.201355s33.2900391-39.8632202,33.2900391-39.8632202
			s40.2872314-31.3816528,94.1450195-20.9918213c53.8577881,10.3898926,82.0588379,63.0978394,82.0588379,63.0978394
			s19.1882324,38.27771,16.2197266,65.206543L1542.6202393,838.5591431z"/>
	</g>
	<g>
		<path class="st24" d="M1347.6602783,1172.5776367l163.7369385,0.5123291l36.5322266,118.5858154
			c0,0-103.2803955,64.4626465-256.6359863-3.2231445L1347.6602783,1172.5776367z"/>
		<g>
			<g>
				<path id="reka_prawa_15_" class="st25" d="M1511.7915039,1012.2831421c0,0,62.5296631,42.9891968,74.2540283,128.9674683
					h-42.9891357c0,0-3.9082031-23.4486084-31.2648926-70.3458252V1012.2831421z"/>
				<g>
					<path class="st26" d="M1562.5969238,1188.1479492l-11.7243652,7.8161621c0,0-7.8161621-11.7243652,11.7243652-23.4486084"/>
					<path class="st26" d="M1566.5050049,1211.5965576c0,0-15.6324463,0-19.5405273-7.8162842
						c-3.9080811-7.8161621,15.6324463-15.6323242,15.6324463-15.6323242"/>
					<path class="st26" d="M1586.0455322,1141.2506104c0,0,7.8161621,50.8054199-7.8162842,74.2540283
						c-15.6323242,23.4486084-15.6323242-50.8054199-15.6323242-50.8054199s-11.7243652,11.7243652-31.2648926,7.8162842
						s12.1660156-31.2648926,12.1660156-31.2648926H1586.0455322z"/>
				</g>
			</g>
			<g>
				<path id="reka_lewa_15_" class="st27" d="M1347.651123,1012.2831421c0,0-62.5296631,42.9891968-74.2540283,128.9674683
					h42.9891357c0,0,3.9080811-23.4486084,31.2648926-70.3458252V1012.2831421z"/>
				<g>
					<path class="st26" d="M1296.8343506,1188.1738281l11.7243652,7.8162842c0,0,7.8161621-11.7243652-11.7243652-23.4487305"/>
					<path class="st26" d="M1292.9262695,1211.6224365c0,0,15.6324463,0,19.5405273-7.8161621
						s-15.6324463-15.6324463-15.6324463-15.6324463"/>
					<path class="st26" d="M1273.3857422,1141.2766113c0,0-7.8161621,50.8052979,7.8161621,74.2540283
						c15.6324463,23.4486084,15.6324463-50.8054199,15.6324463-50.8054199s11.7243652,11.7243652,31.2648926,7.8161621
						c19.5405273-3.9080811-11.7130127-31.2907715-11.7130127-31.2907715L1273.3857422,1141.2766113z"/>
				</g>
			</g>
			<path class="st27" d="M1511.3879395,1172.6102295c-21.2412109,4.9991455-48.6932373,9.4123535-81.4390869,9.4331055
				c-32.9537354,0.020874-60.9621582-4.4464111-82.2885742-9.4656982l-0.0092773-160.2944336
				c20.8261719-5.5278931,49.4891357-10.8865356,83.755127-10.7060547
				c32.6860352,0.1721802,60.1323242,5.3299561,80.385376,10.7059937L1511.3879395,1172.6102295z"/>
		</g>
	</g>
	<g>
		<path class="st27" d="M1427.2581787,1021.7230835c0,0,14.0593262-6.4159546,16.8110352-19.256958l17.1259766,0.9125977
			c0,0,1.2229004,21.0960083-11.0065918,22.3189087C1450.1885986,1025.6976318,1434.2901611,1029.6722412,1427.2581787,1021.7230835
			z"/>
		<path class="st27" d="M1426.8630371,1021.7230835c0,0-14.0594482-6.4159546-16.8110352-19.256958l-17.1259766,0.9125977
			c0,0-1.2230225,21.0960083,11.0065918,22.3189087C1403.9326172,1025.6976318,1419.8310547,1029.6722412,1426.8630371,1021.7230835
			z"/>
	</g>
	<g>
		<path id="prawy_but_15_" class="st28" d="M1527.5236816,1352.9997559
			c1.8355713-3.2990723,2.8861084-6.8342285,2.8861084-10.5335693c0-17.4526367-22.2327881-31.600708-49.6582031-31.600708
			s-49.6582031,14.1480713-49.6582031,31.600708c0,3.6993408,1.050415,7.2344971,2.8861084,10.5335693H1527.5236816z"/>
		<path id="lewy_but_15_" class="st28" d="M1428.2071533,1352.9997559
			c1.8356934-3.2990723,2.8862305-6.8342285,2.8862305-10.5335693c0-17.4526367-22.2329102-31.600708-49.6583252-31.600708
			s-49.6582031,14.1480713-49.6582031,31.600708c0,3.6993408,1.0505371,7.2344971,2.8861084,10.5335693H1428.2071533z"/>
	</g>
	<path class="st29" d="M1442.7021484,1000.3689575v-16.9682617h-31.2878418l0.1536865,20.2466431
		c2.2437744,10.8446045,15.6901855,17.4507446,15.6901855,17.4507446
		c10.9702148-6.4473877,14.1087646-12.5455322,15.3742676-17.9428711L1442.7021484,1000.3689575z"/>
</g>
<g>
	<g>
		<g>
			<rect x="908.376709" y="1340.9732666" class="st30" width="356.4865723" height="92.1090088"/>
			<rect x="1264.8634033" y="1342.2546387" class="st31" width="11.9492188" height="201.6439209"/>
			<rect x="896.4274292" y="1342.8565674" class="st31" width="11.9492798" height="201.6439209"/>
			<rect x="884.3241577" y="1325.9284668" class="st32" width="403.2879028" height="16.9281006"/>
		</g>
		<g>
			<g>
				<path id="prawy_but_14_" class="st33" d="M1002.8911743,1578.4466553
					c-1.7223511-3.0955811-2.7080078-6.4124756-2.7080078-9.883667c0-16.3757324,20.8609619-29.6507568,46.5940552-29.6507568
					c25.7331543,0,46.5942383,13.2750244,46.5942383,29.6507568c0,3.4711914-0.9857178,6.7880859-2.7081299,9.883667H1002.8911743z"
					/>
				<path id="lewy_but_14_" class="st33" d="M1096.0794678,1578.4466553
					c-1.7224121-3.0955811-2.7080078-6.4124756-2.7080078-9.883667c0-16.3757324,20.8609619-29.6507568,46.5941162-29.6507568
					s46.5941162,13.2750244,46.5941162,29.6507568c0,3.4711914-0.9857178,6.7880859-2.7081299,9.883667H1096.0794678z"/>
			</g>
			<g>
				<g>
					<path class="st34" d="M1160.5758057,1409.1572266l-153.633606,0.4807129l-34.2780762,111.2686768
						c0,0,96.9075317,60.4849854,240.8005981-3.024292L1160.5758057,1409.1572266z"/>
					<g>
						<g>
							<path id="reka_prawa_14_" class="st35" d="M1006.5722046,1258.75354c0,0-58.6713867,40.3365479-69.6722412,121.0096436
								h40.3365479c0,0,3.6669922-22.001709,29.3356934-66.005249V1258.75354z"/>
							<g>
								<path class="st36" d="M958.9017334,1423.7667236l11.0008545,7.3339844c0,0,7.3339233-11.0008545-11.0008545-22.0018311"/>
								<path class="st36" d="M955.2347412,1445.7685547c0,0,14.6678467,0,18.3348389-7.3339844
									c3.6669312-7.3338623-14.6678467-14.6678467-14.6678467-14.6678467"/>
								<path class="st36" d="M936.8999634,1379.7631836c0,0-7.3339233,47.6705322,7.3339233,69.6722412
									c14.6678467,22.0018311,14.6678467-47.6704102,14.6678467-47.6704102s11.0008545,11.0008545,29.3356934,7.3338623
									c18.3347778-3.6668701-11.4153442-29.3356934-11.4153442-29.3356934H936.8999634z"/>
							</g>
						</g>
						<g>
							<path id="reka_lewa_14_" class="st35" d="M1160.5844727,1258.75354c0,0,58.6713867,40.3365479,69.6722412,121.0096436
								h-40.3365479c0,0-3.6668701-22.001709-29.3356934-66.005249V1258.75354z"/>
							<g>
								<path class="st36" d="M1208.265625,1423.7911377l-11.0008545,7.3338623c0,0-7.3338623-11.0008545,11.0008545-22.001709"/>
								<path class="st36" d="M1211.9326172,1445.7928467c0,0-14.6678467,0-18.3348389-7.3338623
									c-3.6668701-7.3339844,14.6678467-14.6678467,14.6678467-14.6678467"/>
								<path class="st36" d="M1230.2674561,1379.7875977c0,0,7.3338623,47.6705322-7.3339844,69.6722412
									s-14.6678467-47.6705322-14.6678467-47.6705322s-11.0008545,11.0009766-29.3356934,7.3339844
									c-18.3347168-3.6669922,10.9902344-29.3601074,10.9902344-29.3601074L1230.2674561,1379.7875977z"/>
							</g>
						</g>
						<path class="st37" d="M1006.9509277,1409.1877441c19.9304199,4.6907959,45.6885986,8.831543,76.4139404,8.8510742
							c30.9204102,0.0196533,57.2005615-4.1719971,77.2109375-8.8815918l0.0087891-150.4036865
							c-19.5411377-5.1867676-46.4355469-10.2147217-78.5871582-10.0454102
							c-30.6691895,0.1616211-56.421875,5.0010986-75.4252319,10.0454102L1006.9509277,1409.1877441z"/>
					</g>
				</g>
				<path class="st38" d="M989.0558472,1294.878418c-6.0884399,0.1740723-11.6557617-3.383667-14.0842285-8.9696045
					c-8.4074707-19.3387451-23.617981-72.0050049-11.6467285-185.0693359
					c2.3981934-22.6501465,11.8500366-63.2003174,63.2002563-86.9004517
					c51.3503418-23.7001343,98.7506104-3.9500732,98.7506104-3.9500732s51.3502197,11.8500977,75.050293,67.1503296
					c18.6638184,43.5489502,20.1802979,77.2994385,19.9820557,89.6768799
					c-0.0706787,4.4051514,0.1094971,8.8070068,0.5748291,13.1881104
					c1.3555908,12.7617188,7.0932617,47.2358398,30.793457,78.8359375c0,0-29.1315918,6.404541-51.3503418-23.7000732
					c0,0,6.3547363,48.9304199,7.9000244,55.300293c0,0-22.9467773-18.6793213-27.6501465-35.5501709l-3.5562744,29.3634033
					c-0.3669434,3.0294189-2.8946533,5.3347168-5.9448242,5.421875L989.0558472,1294.878418z"/>
			</g>
		</g>
		<g>
			<g>
				<path class="st39" d="M1030.970459,1429.793457h108.802002c11.4545898,0,20.7403564-12.0507813,20.7403564-26.9161377
					v-77.1586914c0-14.8653564-9.2857666-26.9161377-20.7403564-26.9161377h-108.802002
					c-11.4546509,0-20.7404785,12.0507813-20.7404785,26.9161377v77.1586914
					C1010.2299805,1417.7426758,1019.5158081,1429.793457,1030.970459,1429.793457z"/>
				<g>
					<rect x="1078.642334" y="1382.0646973" class="st40" width="12.3366699" height="73.72229"/>
					<path class="st40" d="M1115.9648438,1382.0646973h-61.1868896c-5.99646,0-10.9025879-4.9061279-10.9025879-10.9025879l0,0
						c0-5.9963379,4.9061279-10.9025879,10.9025879-10.9025879h61.1868896c5.99646,0,10.9025879,4.90625,10.9025879,10.9025879l0,0
						C1126.8674316,1377.1585693,1121.9613037,1382.0646973,1115.9648438,1382.0646973z"/>
				</g>
			</g>
			<g>
				<g>
					<rect x="1031.5386963" y="1467.0021973" class="st40" width="107.6654053" height="10.0936279"/>
					<rect x="1031.5386963" y="1519.1525879" class="st40" width="107.6654053" height="10.0936279"/>
					<rect x="1015.8375244" y="1467.0021973" class="st40" width="15.7011719" height="114.9552002"/>
					<rect x="1139.2041016" y="1467.0021973" class="st40" width="15.7011719" height="114.9552002"/>
				</g>
				<path class="st39" d="M1157.7091064,1467.0021973h-144.675354c-3.0841675,0-5.6075439-2.5234375-5.6075439-5.6075439l0,0
					c0-3.0841064,2.5233765-5.6075439,5.6075439-5.6075439h144.675354c3.0841064,0,5.6075439,2.5234375,5.6075439,5.6075439l0,0
					C1163.3166504,1464.4787598,1160.7932129,1467.0021973,1157.7091064,1467.0021973z"/>
			</g>
		</g>
	</g>
	<g>
		<g>
			<rect x="1427.4085693" y="1340.9732666" class="st30" width="356.4866943" height="92.1090088"/>
			<rect x="1783.8952637" y="1342.2546387" class="st31" width="11.9492188" height="201.6439209"/>
			<rect x="1415.4593506" y="1342.8565674" class="st31" width="11.9492188" height="201.6439209"/>
			<rect x="1403.3560791" y="1325.9284668" class="st32" width="403.2879639" height="16.9281006"/>
		</g>
		<g>
			<g>
				<path id="prawy_but_1_" class="st33" d="M1521.9230957,1578.4466553
					c-1.7224121-3.0955811-2.7081299-6.4124756-2.7081299-9.883667c0-16.3757324,20.861084-29.6507568,46.5942383-29.6507568
					s46.5941162,13.2750244,46.5941162,29.6507568c0,3.4711914-0.9857178,6.7880859-2.7081299,9.883667H1521.9230957z"/>
				<path id="lewy_but_1_" class="st33" d="M1615.1113281,1578.4466553c-1.72229-3.0955811-2.7080078-6.4124756-2.7080078-9.883667
					c0-16.3757324,20.8609619-29.6507568,46.5941162-29.6507568s46.5941162,13.2750244,46.5941162,29.6507568
					c0,3.4711914-0.9857178,6.7880859-2.7080078,9.883667H1615.1113281z"/>
			</g>
			<g>
				<g>
					<path class="st34" d="M1679.6077881,1409.1572266l-153.633667,0.4807129l-34.2780762,111.2686768
						c0,0,96.9074707,60.4849854,240.8005371-3.024292L1679.6077881,1409.1572266z"/>
					<g>
						<g>
							<path id="reka_prawa_1_" class="st35" d="M1525.604126,1258.75354c0,0-58.6713867,40.3365479-69.6722412,121.0096436
								h40.3365479c0,0,3.6668701-22.001709,29.3356934-66.005249V1258.75354z"/>
							<g>
								<path class="st36" d="M1477.9335938,1423.7667236l11.0008545,7.3339844c0,0,7.3339844-11.0008545-11.0008545-22.0018311"/>
								<path class="st36" d="M1474.2666016,1445.7685547c0,0,14.6678467,0,18.3348389-7.3339844
									c3.6669922-7.3338623-14.6678467-14.6678467-14.6678467-14.6678467"/>
								<path class="st36" d="M1455.9318848,1379.7631836c0,0-7.3339844,47.6705322,7.3338623,69.6722412
									c14.6678467,22.0018311,14.6678467-47.6704102,14.6678467-47.6704102s11.0008545,11.0008545,29.3356934,7.3338623
									c18.3348389-3.6668701-11.4152832-29.3356934-11.4152832-29.3356934H1455.9318848z"/>
							</g>
						</g>
						<g>
							<path id="reka_lewa_1_" class="st35" d="M1679.6164551,1258.75354c0,0,58.6712646,40.3365479,69.6722412,121.0096436
								h-40.3366699c0,0-3.6668701-22.001709-29.3355713-66.005249V1258.75354z"/>
							<g>
								<path class="st36" d="M1727.2974854,1423.7911377l-11.0008545,7.3338623c0,0-7.3338623-11.0008545,11.0008545-22.001709"/>
								<path class="st36" d="M1730.9644775,1445.7928467c0,0-14.6678467,0-18.3348389-7.3338623
									c-3.6668701-7.3339844,14.6678467-14.6678467,14.6678467-14.6678467"/>
								<path class="st36" d="M1749.2993164,1379.7875977c0,0,7.3338623,47.6705322-7.3339844,69.6722412
									s-14.6678467-47.6705322-14.6678467-47.6705322s-11.0008545,11.0009766-29.3355713,7.3339844
									c-18.3348389-3.6669922,10.9901123-29.3601074,10.9901123-29.3601074L1749.2993164,1379.7875977z"/>
							</g>
						</g>
						<path class="st37" d="M1525.9827881,1409.1877441c19.930542,4.6907959,45.6885986,8.831543,76.4139404,8.8510742
							c30.9204102,0.0196533,57.2005615-4.1719971,77.2110596-8.8815918l0.008667-150.4036865
							c-19.5410156-5.1867676-46.4354248-10.2147217-78.5870361-10.0454102
							c-30.6693115,0.1616211-56.4219971,5.0010986-75.425293,10.0454102L1525.9827881,1409.1877441z"/>
					</g>
				</g>
				<path class="st41" d="M1508.0877686,1294.878418c-6.088501,0.1740723-11.6557617-3.383667-14.0842285-8.9696045
					c-8.4074707-19.3387451-23.618042-72.0050049-11.6467285-185.0693359
					c2.3981934-22.6501465,11.8499756-63.2003174,63.2003174-86.9004517
					c51.3502197-23.7001343,98.7504883-3.9500732,98.7504883-3.9500732s51.3502197,11.8500977,75.050293,67.1503296
					c18.6639404,43.5489502,20.1802979,77.2994385,19.9820557,89.6768799
					c-0.0705566,4.4051514,0.1094971,8.8070068,0.5748291,13.1881104
					c1.3555908,12.7617188,7.0932617,47.2358398,30.793457,78.8359375c0,0-29.1315918,6.404541-51.3503418-23.7000732
					c0,0,6.3547363,48.9304199,7.9001465,55.300293c0,0-22.9468994-18.6793213-27.6501465-35.5501709l-3.5563965,29.3634033
					c-0.3669434,3.0294189-2.8945313,5.3347168-5.9448242,5.421875L1508.0877686,1294.878418z"/>
			</g>
		</g>
		<g>
			<g>
				<path class="st39" d="M1550.0023193,1429.793457h108.802002c11.4545898,0,20.7403564-12.0507813,20.7403564-26.9161377
					v-77.1586914c0-14.8653564-9.2857666-26.9161377-20.7403564-26.9161377h-108.802002
					c-11.4547119,0-20.7404785,12.0507813-20.7404785,26.9161377v77.1586914
					C1529.2618408,1417.7426758,1538.5476074,1429.793457,1550.0023193,1429.793457z"/>
				<g>
					<rect x="1597.6741943" y="1382.0646973" class="st40" width="12.3366699" height="73.72229"/>
					<path class="st40" d="M1634.9967041,1382.0646973h-61.1868896c-5.9963379,0-10.9025879-4.9061279-10.9025879-10.9025879l0,0
						c0-5.9963379,4.90625-10.9025879,10.9025879-10.9025879h61.1868896c5.99646,0,10.9025879,4.90625,10.9025879,10.9025879l0,0
						C1645.899292,1377.1585693,1640.9931641,1382.0646973,1634.9967041,1382.0646973z"/>
				</g>
			</g>
			<g>
				<g>
					<rect x="1550.5705566" y="1467.0021973" class="st40" width="107.6654053" height="10.0936279"/>
					<rect x="1550.5705566" y="1519.1525879" class="st40" width="107.6654053" height="10.0936279"/>
					<rect x="1534.8693848" y="1467.0021973" class="st40" width="15.7011719" height="114.9552002"/>
					<rect x="1658.2359619" y="1467.0021973" class="st40" width="15.7011719" height="114.9552002"/>
				</g>
				<path class="st39" d="M1676.7409668,1467.0021973h-144.675293c-3.0842285,0-5.607666-2.5234375-5.607666-5.6075439l0,0
					c0-3.0841064,2.5234375-5.6075439,5.607666-5.6075439h144.675293c3.0841064,0,5.6075439,2.5234375,5.6075439,5.6075439l0,0
					C1682.3485107,1464.4787598,1679.8250732,1467.0021973,1676.7409668,1467.0021973z"/>
			</g>
		</g>
	</g>
	<g>
		<g>
			<rect x="386.0594177" y="1340.9732666" class="st30" width="356.4866028" height="92.1090088"/>
			<rect x="742.5460815" y="1342.2546387" class="st31" width="11.9492798" height="201.6439209"/>
			<rect x="374.1101685" y="1342.8565674" class="st31" width="11.9492798" height="201.6439209"/>
			<rect x="362.0068359" y="1325.9284668" class="st32" width="403.2879639" height="16.9281006"/>
		</g>
		<g>
			<g>
				<path id="prawy_but_13_" class="st42" d="M468.4768982,1577.5196533c-1.6474609-2.9608154-2.590332-6.133667-2.590332-9.4538574
					c0-15.6636963,19.9539795-28.3615723,44.5682983-28.3615723c24.6143494,0,44.5683289,12.697876,44.5683289,28.3615723
					c0,3.3201904-0.9428711,6.493042-2.590332,9.4538574H468.4768982z"/>
				<path id="lewy_but_13_" class="st42" d="M557.6134644,1577.5196533c-1.6474609-2.9608154-2.590271-6.133667-2.590271-9.4538574
					c0-15.6636963,19.9539795-28.3615723,44.5682983-28.3615723c24.6142578,0,44.5682373,12.697876,44.5682373,28.3615723
					c0,3.3201904-0.9428101,6.493042-2.590271,9.4538574H557.6134644z"/>
			</g>
			<circle id="ucho_prawe_2_" class="st43" cx="451.8899231" cy="1180.456665" r="24.0644379"/>
			<circle id="ucho_lewe_2_" class="st43" cx="658.1564331" cy="1180.456665" r="24.0644531"/>
			<rect id="szyja_3_" x="542.9909668" y="1280.1520996" class="st43" width="25.7833252" height="29.2210693"/>
			<path id="głowa_10_" class="st44" d="M420.9499512,1080.7612305c0,0,17.1888733,13.7510986,20.6266479,13.7510986
				s20.6266479-82.5065918,20.6266479-82.5065918l13.7510986,30.9399414l41.2532959-48.1288452l3.4378052,24.0644531
				l75.6310425-30.9400024l-20.6266479,30.9400024l58.4421387-6.8755493l-13.7510986,20.626709l61.8799438,6.8754883
				l-24.0643921,10.3133545l44.69104,41.2532959l-24.0643921,3.4377441l20.6266479,55.0043945l-24.0644531-13.7510986
				l-0.2028809,0.3652344c-9.4671021,17.0407715-15.713501,35.6230469-19.0812988,54.8238525
				c-9.6167603,54.8287354-51.1988525,96.072998-101.0379028,96.072998s-91.4211731-41.2442627-101.0379639-96.072998
				c-4.5184937-25.7614746-11.7184143-50.9799805-20.5775452-75.588623L420.9499512,1080.7612305z"/>
			<rect x="482.8299561" y="1452.0408936" class="st45" width="144.3865356" height="110.0087891"/>
			<g>
				<g>
					<path id="reka_prawa_13_" class="st46" d="M482.829895,1311.0921631c0,0-55.0043945,37.8155518-65.3177185,113.4465332
						h37.8155212c0,0,3.4377747-20.6265869,27.5021973-61.8798828V1311.0921631z"/>
					<g>
						<path class="st43" d="M438.1388245,1465.7919922l10.313324,6.8756104c0,0,6.8755493-10.3133545-10.313324-20.626709"/>
						<path class="st43" d="M434.7010498,1486.4187012c0,0,13.7510986,0,17.1888733-6.8756104
							c3.4377747-6.8754883-13.7510986-13.7510986-13.7510986-13.7510986"/>
						<path class="st43" d="M417.5121765,1424.5386963c0,0-6.8755493,44.6911621,6.8755493,65.317749
							c13.7510986,20.626709,13.7510986-44.69104,13.7510986-44.69104s10.313324,10.3133545,27.5021973,6.8754883
							c17.1888733-3.4377441-10.7018433-27.5021973-10.7018433-27.5021973H417.5121765z"/>
					</g>
				</g>
				<g>
					<path id="reka_lewa_13_" class="st46" d="M627.2164307,1311.0921631c0,0,55.0043945,37.8155518,65.317749,113.4465332
						h-37.8155518c0,0-3.4377441-20.6265869-27.5021973-61.8798828V1311.0921631z"/>
					<g>
						<path class="st43" d="M671.9174805,1465.8148193l-10.3132935,6.8756104c0,0-6.8755493-10.3133545,10.3132935-20.626709"/>
						<path class="st43" d="M675.3552856,1486.4415283c0,0-13.7510986,0-17.1889038-6.8756104
							c-3.4377441-6.8754883,13.7510986-13.7510986,13.7510986-13.7510986"/>
						<path class="st43" d="M692.5441284,1424.5615234c0,0,6.8755493,44.6911621-6.8755493,65.317749
							c-13.7510986,20.626709-13.7510986-44.69104-13.7510986-44.69104s-10.3132935,10.3133545-27.5021973,6.8754883
							c-17.1888428-3.4377441,10.3033447-27.5250244,10.3033447-27.5250244L692.5441284,1424.5615234z"/>
					</g>
				</g>
				<path class="st46" d="M482.829895,1451.673584c0,0.2150879,0.1456299,0.4016113,0.3550415,0.4506836
					c18.6397705,4.3641357,43.0151367,8.2796631,71.6381226,8.2978516
					c28.8052979,0.0183105,53.3231201-3.9160156,72.0383911-8.2978516c0.2094116-0.0490723,0.3550415-0.2355957,0.3550415-0.4506836
					v-140.2247314c0-0.210083-0.1390991-0.3936768-0.3422852-0.4472656
					c-18.2910156-4.8304443-43.3782959-9.4847412-73.3331299-9.3270264
					c-28.5685425,0.1505127-52.5866394,4.6307373-70.3687439,9.3269043
					c-0.2032166,0.0537109-0.3424377,0.2371826-0.3424377,0.4473877V1451.673584z"/>
			</g>
			<line class="st47" x1="555.0231934" y1="1562.0496826" x2="555.0231934" y2="1513.7993164"/>
		</g>
		<g>
			<g>
				<path class="st39" d="M504.9193726,1429.793457h108.802002c11.4546509,0,20.7404785-12.0507813,20.7404785-26.9161377
					v-77.1586914c0-14.8653564-9.2858276-26.9161377-20.7404785-26.9161377h-108.802002
					c-11.4546204,0-20.7404175,12.0507813-20.7404175,26.9161377v77.1586914
					C484.1789551,1417.7426758,493.4647522,1429.793457,504.9193726,1429.793457z"/>
				<g>
					<rect x="552.5913086" y="1382.0646973" class="st40" width="12.3366699" height="73.72229"/>
					<path class="st40" d="M589.9138184,1382.0646973h-61.1868896c-5.9963989,0-10.9025879-4.9061279-10.9025879-10.9025879l0,0
						c0-5.9963379,4.906189-10.9025879,10.9025879-10.9025879h61.1868896c5.9963989,0,10.9025879,4.90625,10.9025879,10.9025879l0,0
						C600.8164063,1377.1585693,595.9102173,1382.0646973,589.9138184,1382.0646973z"/>
				</g>
			</g>
			<g>
				<g>
					<rect x="505.4877014" y="1467.0021973" class="st40" width="107.6653748" height="10.0936279"/>
					<rect x="505.4877014" y="1519.1525879" class="st40" width="107.6653748" height="10.0936279"/>
					<rect x="489.786499" y="1467.0021973" class="st40" width="15.7012024" height="114.9552002"/>
					<rect x="613.1530762" y="1467.0021973" class="st40" width="15.7011719" height="114.9552002"/>
				</g>
				<path class="st39" d="M631.65802,1467.0021973h-144.675293c-3.0841675,0-5.6075745-2.5234375-5.6075745-5.6075439l0,0
					c0-3.0841064,2.523407-5.6075439,5.6075745-5.6075439H631.65802c3.0841675,0,5.607605,2.5234375,5.607605,5.6075439l0,0
					C637.265625,1464.4787598,634.7421875,1467.0021973,631.65802,1467.0021973z"/>
			</g>
		</g>
	</g>
	<g>
		<g>
			<rect x="2078.7114258" y="1340.9732666" class="st30" width="356.4865723" height="92.1090088"/>
			<rect x="2435.197998" y="1342.2546387" class="st31" width="11.9492188" height="201.6439209"/>
			<rect x="2066.762207" y="1342.8565674" class="st31" width="11.9492188" height="201.6439209"/>
			<rect x="2054.6586914" y="1325.9284668" class="st32" width="403.2878418" height="16.9281006"/>
		</g>
		<g>
			<g>
				<path id="prawy_but_3_" class="st42" d="M2161.1289063,1577.5196533c-1.6474609-2.9608154-2.590332-6.133667-2.590332-9.4538574
					c0-15.6636963,19.9538574-28.3615723,44.5681152-28.3615723c24.614502,0,44.5683594,12.697876,44.5683594,28.3615723
					c0,3.3201904-0.9428711,6.493042-2.590332,9.4538574H2161.1289063z"/>
				<path id="lewy_but_3_" class="st42" d="M2250.2653809,1577.5196533c-1.6474609-2.9608154-2.590332-6.133667-2.590332-9.4538574
					c0-15.6636963,19.9541016-28.3615723,44.5683594-28.3615723s44.5683594,12.697876,44.5683594,28.3615723
					c0,3.3201904-0.9428711,6.493042-2.590332,9.4538574H2250.2653809z"/>
			</g>
			<circle id="ucho_prawe_1_" class="st43" cx="2144.541748" cy="1180.456665" r="24.0644531"/>
			<circle id="ucho_lewe_1_" class="st43" cx="2350.8083496" cy="1180.456665" r="24.0644531"/>
			<rect id="szyja_2_" x="2235.6428223" y="1280.1520996" class="st43" width="25.7832031" height="29.2210693"/>
			<path id="głowa_1_" class="st48" d="M2113.6018066,1080.7612305c0,0,17.1889648,13.7510986,20.626709,13.7510986
				s20.626709-82.5065918,20.626709-82.5065918l13.7509766,30.9399414l41.253418-48.1288452l3.4377441,24.0644531
				l75.6311035-30.9400024l-20.626709,30.9400024l58.4421387-6.8755493l-13.7509766,20.626709l61.8798828,6.8754883
				l-24.0644531,10.3133545l44.6911621,41.2532959l-24.0644531,3.4377441l20.626709,55.0043945l-24.0644531-13.7510986
				l-0.2028809,0.3652344c-9.4672852,17.0407715-15.713623,35.6230469-19.0812988,54.8238525
				c-9.6169434,54.8287354-51.1989746,96.072998-101.0380859,96.072998s-91.4211426-41.2442627-101.0378418-96.072998
				c-4.5185547-25.7614746-11.7185059-50.9799805-20.5776367-75.588623L2113.6018066,1080.7612305z"/>
			<rect x="2175.4816895" y="1452.0408936" class="st45" width="144.3864746" height="110.0087891"/>
			<g>
				<g>
					<path id="reka_prawa_3_" class="st46" d="M2175.4819336,1311.0921631c0,0-55.0043945,37.8155518-65.3178711,113.4465332
						h37.8156738c0,0,3.4377441-20.6265869,27.5021973-61.8798828V1311.0921631z"/>
					<g>
						<path class="st43" d="M2130.7907715,1465.7919922l10.3132324,6.8756104c0,0,6.8757324-10.3133545-10.3132324-20.626709"/>
						<path class="st43" d="M2127.3530273,1486.4187012c0,0,13.7509766,0,17.1887207-6.8756104
							c3.4379883-6.8754883-13.7509766-13.7510986-13.7509766-13.7510986"/>
						<path class="st43" d="M2110.1640625,1424.5386963c0,0-6.8754883,44.6911621,6.8754883,65.317749
							c13.7512207,20.626709,13.7512207-44.69104,13.7512207-44.69104s10.3132324,10.3133545,27.5021973,6.8754883
							c17.1889648-3.4377441-10.7019043-27.5021973-10.7019043-27.5021973H2110.1640625z"/>
					</g>
				</g>
				<g>
					<path id="reka_lewa_3_" class="st46" d="M2319.8684082,1311.0921631c0,0,55.0043945,37.8155518,65.317627,113.4465332
						h-37.8154297c0,0-3.4377441-20.6265869-27.5021973-61.8798828V1311.0921631z"/>
					<g>
						<path class="st43" d="M2364.5693359,1465.8148193l-10.3132324,6.8756104c0,0-6.8754883-10.3133545,10.3132324-20.626709"/>
						<path class="st43" d="M2368.0073242,1486.4415283c0,0-13.7512207,0-17.1889648-6.8756104
							c-3.4377441-6.8754883,13.7509766-13.7510986,13.7509766-13.7510986"/>
						<path class="st43" d="M2385.1960449,1424.5615234c0,0,6.8754883,44.6911621-6.8754883,65.317749
							c-13.7512207,20.626709-13.7512207-44.69104-13.7512207-44.69104s-10.3132324,10.3133545-27.5021973,6.8754883
							c-17.1887207-3.4377441,10.3034668-27.5250244,10.3034668-27.5250244L2385.1960449,1424.5615234z"/>
					</g>
				</g>
				<path class="st46" d="M2175.4819336,1451.673584c0,0.2150879,0.1455078,0.4016113,0.3549805,0.4506836
					c18.6396484,4.3641357,43.0151367,8.2796631,71.6381836,8.2978516
					c28.8051758,0.0183105,53.322998-3.9160156,72.0383301-8.2978516c0.2094727-0.0490723,0.3549805-0.2355957,0.3549805-0.4506836
					v-140.2247314c0-0.210083-0.1391602-0.3936768-0.3422852-0.4472656
					c-18.2910156-4.8304443-43.3781738-9.4847412-73.3330078-9.3270264
					c-28.5686035,0.1505127-52.5866699,4.6307373-70.3688965,9.3269043
					c-0.203125,0.0537109-0.3422852,0.2371826-0.3422852,0.4473877V1451.673584z"/>
			</g>
			<line class="st47" x1="2247.6750488" y1="1562.0496826" x2="2247.6750488" y2="1513.7993164"/>
		</g>
		<g>
			<g>
				<path class="st39" d="M2197.5712891,1429.793457h108.802002c11.4545898,0,20.7404785-12.0507813,20.7404785-26.9161377
					v-77.1586914c0-14.8653564-9.2858887-26.9161377-20.7404785-26.9161377h-108.802002
					c-11.4545898,0-20.7404785,12.0507813-20.7404785,26.9161377v77.1586914
					C2176.8308105,1417.7426758,2186.1166992,1429.793457,2197.5712891,1429.793457z"/>
				<g>
					<rect x="2245.2431641" y="1382.0646973" class="st40" width="12.3366699" height="73.72229"/>
					<path class="st40" d="M2282.5656738,1382.0646973h-61.1867676c-5.9963379,0-10.9025879-4.9061279-10.9025879-10.9025879l0,0
						c0-5.9963379,4.90625-10.9025879,10.9025879-10.9025879h61.1867676c5.996582,0,10.9025879,4.90625,10.9025879,10.9025879l0,0
						C2293.4682617,1377.1585693,2288.5622559,1382.0646973,2282.5656738,1382.0646973z"/>
				</g>
			</g>
			<g>
				<g>
					<rect x="2198.1396484" y="1467.0021973" class="st40" width="107.6652832" height="10.0936279"/>
					<rect x="2198.1396484" y="1519.1525879" class="st40" width="107.6652832" height="10.0936279"/>
					<rect x="2182.4384766" y="1467.0021973" class="st40" width="15.7011719" height="114.9552002"/>
					<rect x="2305.8049316" y="1467.0021973" class="st40" width="15.7011719" height="114.9552002"/>
				</g>
				<path class="st39" d="M2324.3100586,1467.0021973h-144.675293c-3.0842285,0-5.607666-2.5234375-5.607666-5.6075439l0,0
					c0-3.0841064,2.5234375-5.6075439,5.607666-5.6075439h144.675293c3.0839844,0,5.6074219,2.5234375,5.6074219,5.6075439l0,0
					C2329.9174805,1464.4787598,2327.394043,1467.0021973,2324.3100586,1467.0021973z"/>
			</g>
		</g>
	</g>
	<g>
		<g>
			<rect x="2601.0285645" y="1340.9732666" class="st30" width="356.4865723" height="92.1090088"/>
			<rect x="2957.5153809" y="1342.2546387" class="st31" width="11.9492188" height="201.6439209"/>
			<rect x="2589.0793457" y="1342.8565674" class="st31" width="11.9492188" height="201.6439209"/>
			<rect x="2576.9760742" y="1325.9284668" class="st32" width="403.2878418" height="16.9281006"/>
		</g>
		<g>
			<g>
				<path id="prawy_but_4_" class="st42" d="M2683.4460449,1577.5196533c-1.6474609-2.9608154-2.590332-6.133667-2.590332-9.4538574
					c0-15.6636963,19.9541016-28.3615723,44.5683594-28.3615723s44.5683594,12.697876,44.5683594,28.3615723
					c0,3.3201904-0.9428711,6.493042-2.590332,9.4538574H2683.4460449z"/>
				<path id="lewy_but_4_" class="st42" d="M2772.5827637,1577.5196533c-1.6474609-2.9608154-2.590332-6.133667-2.590332-9.4538574
					c0-15.6636963,19.9538574-28.3615723,44.5683594-28.3615723c24.6142578,0,44.5681152,12.697876,44.5681152,28.3615723
					c0,3.3201904-0.9428711,6.493042-2.590332,9.4538574H2772.5827637z"/>
			</g>
			<circle id="ucho_prawe_5_" class="st43" cx="2666.8591309" cy="1180.456665" r="24.0644531"/>
			<circle id="ucho_lewe_5_" class="st43" cx="2873.1257324" cy="1180.456665" r="24.0644531"/>
			<rect id="szyja_7_" x="2757.9602051" y="1280.1520996" class="st43" width="25.7832031" height="29.2210693"/>
			<path id="głowa_2_" class="st49" d="M2635.9191895,1080.7612305c0,0,17.1889648,13.7510986,20.626709,13.7510986
				s20.6264648-82.5065918,20.6264648-82.5065918l13.7512207,30.9399414l41.253418-48.1288452l3.4377441,24.0644531
				l75.6308594-30.9400024l-20.6264648,30.9400024l58.4421387-6.8755493l-13.7512207,20.626709l61.880127,6.8754883
				l-24.0644531,10.3133545l44.690918,41.2532959l-24.0644531,3.4377441l20.626709,55.0043945l-24.0644531-13.7510986
				l-0.2028809,0.3652344c-9.467041,17.0407715-15.7133789,35.6230469-19.0812988,54.8238525
				c-9.6166992,54.8287354-51.1987305,96.072998-101.0378418,96.072998s-91.4211426-41.2442627-101.0378418-96.072998
				c-4.5185547-25.7614746-11.7185059-50.9799805-20.5776367-75.588623L2635.9191895,1080.7612305z"/>
			<rect x="2697.7993164" y="1452.0408936" class="st45" width="144.3864746" height="110.0087891"/>
			<g>
				<g>
					<path id="reka_prawa_4_" class="st46" d="M2697.7990723,1311.0921631c0,0-55.0043945,37.8155518-65.317627,113.4465332
						h37.8154297c0,0,3.4377441-20.6265869,27.5021973-61.8798828V1311.0921631z"/>
					<g>
						<path class="st43" d="M2653.1081543,1465.7919922l10.3132324,6.8756104c0,0,6.8754883-10.3133545-10.3132324-20.626709"/>
						<path class="st43" d="M2649.670166,1486.4187012c0,0,13.7512207,0,17.1889648-6.8756104
							c3.4377441-6.8754883-13.7509766-13.7510986-13.7509766-13.7510986"/>
						<path class="st43" d="M2632.4814453,1424.5386963c0,0-6.8754883,44.6911621,6.8754883,65.317749
							c13.7512207,20.626709,13.7512207-44.69104,13.7512207-44.69104s10.3132324,10.3133545,27.5021973,6.8754883
							c17.1887207-3.4377441-10.7019043-27.5021973-10.7019043-27.5021973H2632.4814453z"/>
					</g>
				</g>
				<g>
					<path id="reka_lewa_4_" class="st46" d="M2842.185791,1311.0921631c0,0,55.0043945,37.8155518,65.317627,113.4465332
						h-37.8154297c0,0-3.4379883-20.6265869-27.5021973-61.8798828V1311.0921631z"/>
					<g>
						<path class="st43" d="M2886.8867188,1465.8148193l-10.3132324,6.8756104c0,0-6.8757324-10.3133545,10.3132324-20.626709"/>
						<path class="st43" d="M2890.3244629,1486.4415283c0,0-13.7509766,0-17.1887207-6.8756104
							c-3.4379883-6.8754883,13.7509766-13.7510986,13.7509766-13.7510986"/>
						<path class="st43" d="M2907.5134277,1424.5615234c0,0,6.8754883,44.6911621-6.8754883,65.317749
							c-13.7512207,20.626709-13.7512207-44.69104-13.7512207-44.69104s-10.3132324,10.3133545-27.5021973,6.8754883
							c-17.1889648-3.4377441,10.3034668-27.5250244,10.3034668-27.5250244L2907.5134277,1424.5615234z"/>
					</g>
				</g>
				<path class="st46" d="M2697.7990723,1451.673584c0,0.2150879,0.145752,0.4016113,0.3549805,0.4506836
					c18.6398926,4.3641357,43.0153809,8.2796631,71.6381836,8.2978516
					c28.8054199,0.0183105,53.3232422-3.9160156,72.0383301-8.2978516c0.2094727-0.0490723,0.3552246-0.2355957,0.3552246-0.4506836
					v-140.2247314c0-0.210083-0.1391602-0.3936768-0.3422852-0.4472656
					c-18.2910156-4.8304443-43.378418-9.4847412-73.333252-9.3270264
					c-28.5686035,0.1505127-52.5866699,4.6307373-70.3686523,9.3269043
					c-0.203125,0.0537109-0.3425293,0.2371826-0.3425293,0.4473877V1451.673584z"/>
			</g>
			<line class="st47" x1="2769.9924316" y1="1562.0496826" x2="2769.9924316" y2="1513.7993164"/>
		</g>
		<g>
			<g>
				<path class="st39" d="M2719.8886719,1429.793457h108.802002c11.4545898,0,20.7404785-12.0507813,20.7404785-26.9161377
					v-77.1586914c0-14.8653564-9.2858887-26.9161377-20.7404785-26.9161377h-108.802002
					c-11.4545898,0-20.7404785,12.0507813-20.7404785,26.9161377v77.1586914
					C2699.1481934,1417.7426758,2708.434082,1429.793457,2719.8886719,1429.793457z"/>
				<g>
					<rect x="2767.5605469" y="1382.0646973" class="st40" width="12.3366699" height="73.72229"/>
					<path class="st40" d="M2804.8830566,1382.0646973h-61.1867676c-5.996582,0-10.9025879-4.9061279-10.9025879-10.9025879l0,0
						c0-5.9963379,4.9060059-10.9025879,10.9025879-10.9025879h61.1867676c5.9963379,0,10.9025879,4.90625,10.9025879,10.9025879
						l0,0C2815.7856445,1377.1585693,2810.8793945,1382.0646973,2804.8830566,1382.0646973z"/>
				</g>
			</g>
			<g>
				<g>
					<rect x="2720.4570313" y="1467.0021973" class="st40" width="107.6652832" height="10.0936279"/>
					<rect x="2720.4570313" y="1519.1525879" class="st40" width="107.6652832" height="10.0936279"/>
					<rect x="2704.7558594" y="1467.0021973" class="st40" width="15.7011719" height="114.9552002"/>
					<rect x="2828.1223145" y="1467.0021973" class="st40" width="15.7011719" height="114.9552002"/>
				</g>
				<path class="st39" d="M2846.6271973,1467.0021973h-144.675293c-3.0839844,0-5.6074219-2.5234375-5.6074219-5.6075439l0,0
					c0-3.0841064,2.5234375-5.6075439,5.6074219-5.6075439h144.675293c3.0842285,0,5.607666,2.5234375,5.607666,5.6075439l0,0
					C2852.2348633,1464.4787598,2849.7114258,1467.0021973,2846.6271973,1467.0021973z"/>
			</g>
		</g>
	</g>
	<g>
		<g>
			<rect x="3118.6137695" y="1340.9732666" class="st30" width="356.4865723" height="92.1090088"/>
			<rect x="3475.1003418" y="1342.2546387" class="st31" width="11.9492188" height="201.6439209"/>
			<rect x="3106.6643066" y="1342.8565674" class="st31" width="11.9492188" height="201.6439209"/>
			<rect x="3094.5610352" y="1325.9284668" class="st32" width="403.2878418" height="16.9281006"/>
		</g>
		<g>
			<g>
				<path id="prawy_but_5_" class="st42" d="M3201.0310059,1577.5196533
					c-1.6474609-2.9608154-2.5900879-6.133667-2.5900879-9.4538574c0-15.6636963,19.9538574-28.3615723,44.5681152-28.3615723
					c24.614502,0,44.5683594,12.697876,44.5683594,28.3615723c0,3.3201904-0.9428711,6.493042-2.590332,9.4538574H3201.0310059z"/>
				<path id="lewy_but_5_" class="st42" d="M3290.1677246,1577.5196533c-1.6474609-2.9608154-2.590332-6.133667-2.590332-9.4538574
					c0-15.6636963,19.9541016-28.3615723,44.5683594-28.3615723s44.5683594,12.697876,44.5683594,28.3615723
					c0,3.3201904-0.9428711,6.493042-2.590332,9.4538574H3290.1677246z"/>
			</g>
			<circle id="ucho_prawe_7_" class="st43" cx="3184.4440918" cy="1180.456665" r="24.0644531"/>
			<circle id="ucho_lewe_7_" class="st43" cx="3390.7106934" cy="1180.456665" r="24.0644531"/>
			<rect id="szyja_9_" x="3275.545166" y="1280.1520996" class="st43" width="25.7832031" height="29.2210693"/>
			<path id="głowa_4_" class="st50" d="M3153.5041504,1080.7612305c0,0,17.1889648,13.7510986,20.626709,13.7510986
				s20.626709-82.5065918,20.626709-82.5065918l13.7509766,30.9399414l41.253418-48.1288452l3.4377441,24.0644531
				l75.6311035-30.9400024l-20.626709,30.9400024l58.4421387-6.8755493l-13.7512207,20.626709l61.880127,6.8754883
				l-24.0644531,10.3133545l44.690918,41.2532959l-24.064209,3.4377441l20.6264648,55.0043945l-24.0644531-13.7510986
				l-0.2028809,0.3652344c-9.467041,17.0407715-15.7133789,35.6230469-19.0812988,54.8238525
				c-9.6166992,54.8287354-51.1987305,96.072998-101.0378418,96.072998s-91.4211426-41.2442627-101.0378418-96.072998
				c-4.5185547-25.7614746-11.7185059-50.9799805-20.5776367-75.588623L3153.5041504,1080.7612305z"/>
			<rect x="3215.3842773" y="1452.0408936" class="st45" width="144.3864746" height="110.0087891"/>
			<g>
				<g>
					<path id="reka_prawa_5_" class="st46" d="M3215.3840332,1311.0921631c0,0-55.0043945,37.8155518-65.317627,113.4465332
						h37.8154297c0,0,3.4377441-20.6265869,27.5021973-61.8798828V1311.0921631z"/>
					<g>
						<path class="st43" d="M3170.6931152,1465.7919922l10.3132324,6.8756104c0,0,6.8754883-10.3133545-10.3132324-20.626709"/>
						<path class="st43" d="M3167.2553711,1486.4187012c0,0,13.7509766,0,17.1887207-6.8756104
							c3.4377441-6.8754883-13.7509766-13.7510986-13.7509766-13.7510986"/>
						<path class="st43" d="M3150.0664063,1424.5386963c0,0-6.8754883,44.6911621,6.8754883,65.317749
							c13.7512207,20.626709,13.7512207-44.69104,13.7512207-44.69104s10.3132324,10.3133545,27.5021973,6.8754883
							c17.1887207-3.4377441-10.7019043-27.5021973-10.7019043-27.5021973H3150.0664063z"/>
					</g>
				</g>
				<g>
					<path id="reka_lewa_5_" class="st46" d="M3359.770752,1311.0921631c0,0,55.0043945,37.8155518,65.317627,113.4465332
						h-37.8154297c0,0-3.4377441-20.6265869-27.5021973-61.8798828V1311.0921631z"/>
					<g>
						<path class="st43" d="M3404.4716797,1465.8148193l-10.3132324,6.8756104c0,0-6.8754883-10.3133545,10.3132324-20.626709"/>
						<path class="st43" d="M3407.9094238,1486.4415283c0,0-13.7509766,0-17.1887207-6.8756104
							c-3.4377441-6.8754883,13.7509766-13.7510986,13.7509766-13.7510986"/>
						<path class="st43" d="M3425.0983887,1424.5615234c0,0,6.8754883,44.6911621-6.8754883,65.317749
							c-13.7512207,20.626709-13.7512207-44.69104-13.7512207-44.69104s-10.3132324,10.3133545-27.5021973,6.8754883
							c-17.1887207-3.4377441,10.3034668-27.5250244,10.3034668-27.5250244L3425.0983887,1424.5615234z"/>
					</g>
				</g>
				<path class="st46" d="M3215.3840332,1451.673584c0,0.2150879,0.145752,0.4016113,0.3552246,0.4506836
					c18.6396484,4.3641357,43.0151367,8.2796631,71.6379395,8.2978516
					c28.8054199,0.0183105,53.3232422-3.9160156,72.0385742-8.2978516c0.2092285-0.0490723,0.3549805-0.2355957,0.3549805-0.4506836
					v-140.2247314c0-0.210083-0.1391602-0.3936768-0.3422852-0.4472656
					c-18.2910156-4.8304443-43.378418-9.4847412-73.333252-9.3270264
					c-28.5683594,0.1505127-52.5864258,4.6307373-70.3686523,9.3269043
					c-0.203125,0.0537109-0.3425293,0.2371826-0.3425293,0.4473877V1451.673584z"/>
			</g>
			<line class="st47" x1="3287.5773926" y1="1562.0496826" x2="3287.5773926" y2="1513.7993164"/>
		</g>
		<g>
			<g>
				<path class="st39" d="M3237.4736328,1429.793457h108.802002c11.4545898,0,20.7404785-12.0507813,20.7404785-26.9161377
					v-77.1586914c0-14.8653564-9.2858887-26.9161377-20.7404785-26.9161377h-108.802002
					c-11.4545898,0-20.7404785,12.0507813-20.7404785,26.9161377v77.1586914
					C3216.7331543,1417.7426758,3226.019043,1429.793457,3237.4736328,1429.793457z"/>
				<g>
					<rect x="3285.1455078" y="1382.0646973" class="st40" width="12.3366699" height="73.72229"/>
					<path class="st40" d="M3322.4680176,1382.0646973H3261.28125c-5.996582,0-10.9025879-4.9061279-10.9025879-10.9025879l0,0
						c0-5.9963379,4.9060059-10.9025879,10.9025879-10.9025879h61.1867676c5.9963379,0,10.9025879,4.90625,10.9025879,10.9025879
						l0,0C3333.3706055,1377.1585693,3328.4643555,1382.0646973,3322.4680176,1382.0646973z"/>
				</g>
			</g>
			<g>
				<g>
					<rect x="3238.0419922" y="1467.0021973" class="st40" width="107.6652832" height="10.0936279"/>
					<rect x="3238.0419922" y="1519.1525879" class="st40" width="107.6652832" height="10.0936279"/>
					<rect x="3222.3408203" y="1467.0021973" class="st40" width="15.7011719" height="114.9552002"/>
					<rect x="3345.7072754" y="1467.0021973" class="st40" width="15.7011719" height="114.9552002"/>
				</g>
				<path class="st39" d="M3364.2121582,1467.0021973h-144.675293c-3.0839844,0-5.6074219-2.5234375-5.6074219-5.6075439l0,0
					c0-3.0841064,2.5234375-5.6075439,5.6074219-5.6075439h144.675293c3.0842285,0,5.607666,2.5234375,5.607666,5.6075439l0,0
					C3369.8198242,1464.4787598,3367.2963867,1467.0021973,3364.2121582,1467.0021973z"/>
			</g>
		</g>
	</g>
</g>
<g>
	<g>
		<g>
			<rect x="261.2271729" y="1616.5709229" class="st51" width="404.4829102" height="104.5102539"/>
			<rect x="665.710083" y="1618.0247803" class="st52" width="13.5581055" height="228.7927246"/>
			<rect x="247.6690979" y="1618.7078857" class="st52" width="13.558075" height="228.7927246"/>
			<rect x="233.9362183" y="1599.5006104" class="st16" width="457.5853882" height="19.2072754"/>
		</g>
		<g>
			<g>
				<path id="prawy_but_7_" class="st53" d="M386.9129944,1874.9750977
					c-1.9050293-3.4239502-2.9953003-7.0927734-2.9953003-10.9320068c0-18.1126709,23.0736389-32.7957764,51.5361938-32.7957764
					c28.4625854,0,51.5362244,14.6831055,51.5362244,32.7957764c0,3.8392334-1.090271,7.5080566-2.9953003,10.9320068H386.9129944z"
					/>
				<path id="lewy_but_7_" class="st53" d="M489.9853821,1874.9750977
					c-1.9050293-3.4239502-2.9952698-7.0927734-2.9952698-10.9320068c0-18.1126709,23.0736084-32.7957764,51.5361938-32.7957764
					c28.4625244,0,51.5361938,14.6831055,51.5361938,32.7957764c0,3.8392334-1.090271,7.5080566-2.9953003,10.9320068H489.9853821z"
					/>
			</g>
			<g>
				<g>
					<path class="st54" d="M561.3226929,1687.7297363l-169.9289856,0.5317383l-37.9138184,123.0704346
						c0,0,107.1861267,66.9005127,266.3413391-3.3449707L561.3226929,1687.7297363z"/>
					<g>
						<g>
							<path id="reka_prawa_7_" class="st55" d="M390.984436,1521.373291c0,0-64.8944092,44.6149902-77.0621033,133.8447266
								h44.6148987c0,0,4.0559082-24.3353271,32.4472046-73.0062256V1521.373291z"/>
							<g>
								<path class="st56" d="M338.2577209,1703.888916l12.1676941,8.1116943c0,0,8.1118164-12.1676025-12.1676941-24.3353271"/>
								<path class="st56" d="M334.2018127,1728.2242432c0,0,16.2236023,0,20.2795105-8.1118164
									s-16.2236023-16.2235107-16.2236023-16.2235107"/>
								<path class="st56" d="M313.9223328,1655.2180176c0,0-8.1118164,52.7266846,8.1117859,77.0621338
									s16.2236023-52.7266846,16.2236023-52.7266846s12.1676941,12.1677246,32.4472046,8.1118164
									s-12.6260681-32.4472656-12.6260681-32.4472656H313.9223328z"/>
							</g>
						</g>
						<g>
							<path id="reka_lewa_7_" class="st55" d="M561.3322144,1521.373291c0,0,64.8944092,44.6149902,77.0621338,133.8447266
								h-44.6149292c0,0-4.0558472-24.3353271-32.4472046-73.0062256V1521.373291z"/>
							<g>
								<path class="st56" d="M614.0707397,1703.9157715l-12.1677246,8.1118164c0,0-8.1118164-12.1677246,12.1677246-24.3354492"/>
								<path class="st56" d="M618.1266479,1728.2512207c0,0-16.2236328,0-20.279541-8.1118164
									s16.2236328-16.2236328,16.2236328-16.2236328"/>
								<path class="st56" d="M638.4061279,1655.2449951c0,0,8.1118164,52.7266846-8.1118164,77.0621338
									c-16.2235718,24.3353271-16.2235718-52.7266846-16.2235718-52.7266846s-12.1677246,12.1676025-32.4472046,8.1116943
									c-20.27948-4.0557861,12.1558838-32.4741211,12.1558838-32.4741211L638.4061279,1655.2449951z"/>
							</g>
						</g>
						<path class="st57" d="M391.4033203,1687.7635498c22.0444336,5.1882324,50.5346069,9.7683105,84.5189209,9.789917
							c34.1999207,0.0216064,63.2675781-4.614624,85.4004517-9.8237305l0.0095825-166.3563232
							c-21.6137085-5.7369385-51.3606873-11.2982178-86.9224854-11.1109619
							c-33.9221802,0.1787109-62.4063416,5.5314941-83.425354,11.1108398L391.4033203,1687.7635498z"/>
					</g>
				</g>
				<path class="st49" d="M371.6102295,1561.329834c-6.7342834,0.1925049-12.8920898-3.7425537-15.578125-9.9210205
					c-9.2992249-21.3898926-26.1230469-79.6422119-12.8820496-204.6989746
					c2.6525574-25.0524902,13.1069336-69.9036865,69.903717-96.1175537
					c56.7967834-26.2139893,109.2246094-4.3690186,109.2246094-4.3690186s56.7967529,13.1069336,83.0106812,74.2727051
					c20.6434326,48.1680908,22.3206787,85.498291,22.1013794,99.1885986
					c-0.078064,4.8724365,0.1211548,9.7410889,0.6358643,14.5869141
					c1.4993286,14.1152344,7.8456421,52.2458496,34.0595093,87.1977539c0,0-32.2214355,7.0838623-56.7967529-26.2138672
					c0,0,7.0286865,54.1202393,8.737915,61.1656494c0,0-25.3806763-20.6605225-30.5828857-39.3208008l-3.9335327,32.4779053
					c-0.4058228,3.350708-3.2015991,5.9005127-6.5753784,5.9969482L371.6102295,1561.329834z"/>
			</g>
		</g>
		<g>
			<g>
				<path class="st16" d="M416.5714722,1717.1645508h122.8372192c12.932251,0,23.4159546-13.6052246,23.4159546-30.3881836
					v-87.1120605c0-16.782959-10.4837036-30.3881836-23.4159546-30.3881836H416.5714722
					c-12.932251,0-23.4158936,13.6052246-23.4158936,30.3881836v87.1120605
					C393.1555786,1703.5593262,403.6392212,1717.1645508,416.5714722,1717.1645508z"/>
				<g>
					<rect x="470.3929749" y="1663.2790527" class="st52" width="13.9280701" height="83.2324219"/>
					<path class="st52" d="M512.5300293,1663.2790527h-69.0798645c-6.769928,0-12.3089905-5.5390625-12.3089905-12.309082l0,0
						c0-6.7698975,5.5390625-12.30896,12.3089905-12.30896h69.0798645c6.7699585,0,12.30896,5.5390625,12.30896,12.30896l0,0
						C524.8389893,1657.7399902,519.2999878,1663.2790527,512.5300293,1663.2790527z"/>
				</g>
			</g>
			<g>
				<g>
					<rect x="417.2131042" y="1759.1732178" class="st52" width="121.5539856" height="11.3956299"/>
					<rect x="417.2131042" y="1818.0509033" class="st52" width="121.5539856" height="11.3956299"/>
					<rect x="399.4865112" y="1759.1732178" class="st52" width="17.7266235" height="129.7841797"/>
					<rect x="538.7670898" y="1759.1732178" class="st52" width="17.7266235" height="129.7841797"/>
				</g>
				<path class="st16" d="M559.6591797,1759.1732178H396.3210144c-3.4819946,0-6.3309021-2.848877-6.3309021-6.3309326l0,0
					c0-3.4819336,2.8489075-6.3309326,6.3309021-6.3309326h163.3381653c3.4819946,0,6.3309326,2.848999,6.3309326,6.3309326l0,0
					C565.9901123,1756.3243408,563.1411743,1759.1732178,559.6591797,1759.1732178z"/>
			</g>
		</g>
	</g>
	<g>
		<g>
			<rect x="1402.9014893" y="1616.5709229" class="st51" width="404.4829102" height="104.5102539"/>
			<rect x="1807.3843994" y="1618.0247803" class="st52" width="13.5581055" height="228.7927246"/>
			<rect x="1389.3435059" y="1618.7078857" class="st52" width="13.5581055" height="228.7927246"/>
			<rect x="1375.6105957" y="1599.5006104" class="st16" width="457.5854492" height="19.2072754"/>
		</g>
		<g>
			<g>
				<path id="prawy_but_8_" class="st53" d="M1528.5874023,1874.9750977
					c-1.9050293-3.4239502-2.9953613-7.0927734-2.9953613-10.9320068c0-18.1126709,23.0736084-32.7957764,51.5362549-32.7957764
					c28.4625244,0,51.5361328,14.6831055,51.5361328,32.7957764c0,3.8392334-1.09021,7.5080566-2.9952393,10.9320068H1528.5874023z"
					/>
				<path id="lewy_but_8_" class="st53" d="M1631.65979,1874.9750977
					c-1.9050293-3.4239502-2.9953613-7.0927734-2.9953613-10.9320068c0-18.1126709,23.0736084-32.7957764,51.5362549-32.7957764
					c28.4625244,0,51.5361328,14.6831055,51.5361328,32.7957764c0,3.8392334-1.09021,7.5080566-2.9952393,10.9320068H1631.65979z"/>
			</g>
			<g>
				<g>
					<path class="st54" d="M1702.9970703,1687.7297363l-169.9290771,0.5317383l-37.9136963,123.0704346
						c0,0,107.1860352,66.9005127,266.3413086-3.3449707L1702.9970703,1687.7297363z"/>
					<g>
						<g>
							<path id="reka_prawa_8_" class="st55" d="M1532.6588135,1521.373291c0,0-64.8944092,44.6149902-77.0621338,133.8447266
								h44.6148682c0,0,4.0559082-24.3353271,32.4472656-73.0062256V1521.373291z"/>
							<g>
								<path class="st56" d="M1479.9321289,1703.888916l12.1676025,8.1116943c0,0,8.1118164-12.1676025-12.1676025-24.3353271"/>
								<path class="st56" d="M1475.8762207,1728.2242432c0,0,16.2235107,0,20.2794189-8.1118164
									s-16.2235107-16.2235107-16.2235107-16.2235107"/>
								<path class="st56" d="M1455.5966797,1655.2180176c0,0-8.1118164,52.7266846,8.1118164,77.0621338
									s16.2236328-52.7266846,16.2236328-52.7266846s12.1676025,12.1677246,32.4471436,8.1118164
									s-12.6260986-32.4472656-12.6260986-32.4472656H1455.5966797z"/>
							</g>
						</g>
						<g>
							<path id="reka_lewa_8_" class="st55" d="M1703.0065918,1521.373291c0,0,64.8944092,44.6149902,77.0621338,133.8447266
								h-44.6148682c0,0-4.0559082-24.3353271-32.4472656-73.0062256V1521.373291z"/>
							<g>
								<path class="st56" d="M1755.7451172,1703.9157715l-12.1677246,8.1118164c0,0-8.1118164-12.1677246,12.1677246-24.3354492"/>
								<path class="st56" d="M1759.8010254,1728.2512207c0,0-16.2236328,0-20.279541-8.1118164
									s16.2236328-16.2236328,16.2236328-16.2236328"/>
								<path class="st56" d="M1780.0804443,1655.2449951c0,0,8.1118164,52.7266846-8.1116943,77.0621338
									c-16.2236328,24.3353271-16.2236328-52.7266846-16.2236328-52.7266846s-12.1677246,12.1676025-32.4472656,8.1116943
									c-20.2794189-4.0557861,12.1560059-32.4741211,12.1560059-32.4741211L1780.0804443,1655.2449951z"/>
							</g>
						</g>
						<path class="st57" d="M1533.0776367,1687.7635498c22.0444336,5.1882324,50.534668,9.7683105,84.5189209,9.789917
							c34.1999512,0.0216064,63.2675781-4.614624,85.4005127-9.8237305l0.0096436-166.3563232
							c-21.6137695-5.7369385-51.3607178-11.2982178-86.9226074-11.1109619
							c-33.9221191,0.1787109-62.40625,5.5314941-83.425293,11.1108398L1533.0776367,1687.7635498z"/>
					</g>
				</g>
				<path class="st50" d="M1513.2845459,1561.329834c-6.7342529,0.1925049-12.8920898-3.7425537-15.578125-9.9210205
					c-9.2991943-21.3898926-26.1230469-79.6422119-12.881958-204.6989746
					c2.6524658-25.0524902,13.1069336-69.9036865,69.9036865-96.1175537
					c56.7967529-26.2139893,109.2246094-4.3690186,109.2246094-4.3690186s56.7967529,13.1069336,83.0106201,74.2727051
					c20.6434326,48.1680908,22.3208008,85.498291,22.1014404,99.1885986
					c-0.078125,4.8724365,0.1210938,9.7410889,0.6358643,14.5869141
					c1.4992676,14.1152344,7.8455811,52.2458496,34.0594482,87.1977539c0,0-32.2214355,7.0838623-56.7967529-26.2138672
					c0,0,7.0288086,54.1202393,8.7380371,61.1656494c0,0-25.3807373-20.6605225-30.5828857-39.3208008l-3.9335938,32.4779053
					c-0.4058838,3.350708-3.2016602,5.9005127-6.5754395,5.9969482L1513.2845459,1561.329834z"/>
			</g>
		</g>
		<g>
			<g>
				<path class="st16" d="M1558.2458496,1717.1645508h122.8372803c12.932251,0,23.4158936-13.6052246,23.4158936-30.3881836
					v-87.1120605c0-16.782959-10.4836426-30.3881836-23.4158936-30.3881836h-122.8372803
					c-12.932251,0-23.4158936,13.6052246-23.4158936,30.3881836v87.1120605
					C1534.8299561,1703.5593262,1545.3135986,1717.1645508,1558.2458496,1717.1645508z"/>
				<g>
					<rect x="1612.0673828" y="1663.2790527" class="st52" width="13.9281006" height="83.2324219"/>
					<path class="st52" d="M1654.2043457,1663.2790527h-69.079834c-6.7698975,0-12.30896-5.5390625-12.30896-12.309082l0,0
						c0-6.7698975,5.5390625-12.30896,12.30896-12.30896h69.079834c6.7700195,0,12.309082,5.5390625,12.309082,12.30896l0,0
						C1666.5134277,1657.7399902,1660.9743652,1663.2790527,1654.2043457,1663.2790527z"/>
				</g>
			</g>
			<g>
				<g>
					<rect x="1558.8874512" y="1759.1732178" class="st52" width="121.5539551" height="11.3956299"/>
					<rect x="1558.8874512" y="1818.0509033" class="st52" width="121.5539551" height="11.3956299"/>
					<rect x="1541.1608887" y="1759.1732178" class="st52" width="17.7265625" height="129.7841797"/>
					<rect x="1680.4414063" y="1759.1732178" class="st52" width="17.7265625" height="129.7841797"/>
				</g>
				<path class="st16" d="M1701.3334961,1759.1732178h-163.3381348c-3.4819336,0-6.3309326-2.848877-6.3309326-6.3309326l0,0
					c0-3.4819336,2.848999-6.3309326,6.3309326-6.3309326h163.3381348c3.4820557,0,6.3309326,2.848999,6.3309326,6.3309326l0,0
					C1707.6644287,1756.3243408,1704.8155518,1759.1732178,1701.3334961,1759.1732178z"/>
			</g>
		</g>
	</g>
	<g>
		<g>
			<rect x="2608.4396973" y="1616.5709229" class="st51" width="404.4829102" height="104.5102539"/>
			<rect x="3012.9226074" y="1618.0247803" class="st52" width="13.5581055" height="228.7927246"/>
			<rect x="2594.8815918" y="1618.7078857" class="st52" width="13.5581055" height="228.7927246"/>
			<rect x="2581.1486816" y="1599.5006104" class="st16" width="457.5854492" height="19.2072754"/>
		</g>
		<g>
			<g>
				<path id="prawy_but_10_" class="st53" d="M2734.1254883,1874.9750977
					c-1.9050293-3.4239502-2.9953613-7.0927734-2.9953613-10.9320068c0-18.1126709,23.0737305-32.7957764,51.536377-32.7957764
					c28.4624023,0,51.5361328,14.6831055,51.5361328,32.7957764c0,3.8392334-1.090332,7.5080566-2.9953613,10.9320068H2734.1254883z
					"/>
				<path id="lewy_but_10_" class="st53" d="M2837.197998,1874.9750977
					c-1.9050293-3.4239502-2.9953613-7.0927734-2.9953613-10.9320068c0-18.1126709,23.0737305-32.7957764,51.5361328-32.7957764
					c28.4626465,0,51.5361328,14.6831055,51.5361328,32.7957764c0,3.8392334-1.0900879,7.5080566-2.9951172,10.9320068H2837.197998z
					"/>
			</g>
			<g>
				<g>
					<path class="st54" d="M2908.5351563,1687.7297363l-169.9289551,0.5317383l-37.9138184,123.0704346
						c0,0,107.1862793,66.9005127,266.3413086-3.3449707L2908.5351563,1687.7297363z"/>
					<g>
						<g>
							<path id="reka_prawa_10_" class="st55" d="M2738.1970215,1521.373291c0,0-64.8945313,44.6149902-77.0622559,133.8447266
								h44.6149902c0,0,4.0559082-24.3353271,32.4472656-73.0062256V1521.373291z"/>
							<g>
								<path class="st56" d="M2685.4702148,1703.888916l12.1677246,8.1116943c0,0,8.1118164-12.1676025-12.1677246-24.3353271"/>
								<path class="st56" d="M2681.4143066,1728.2242432c0,0,16.2236328,0,20.279541-8.1118164
									s-16.2236328-16.2235107-16.2236328-16.2235107"/>
								<path class="st56" d="M2661.1347656,1655.2180176c0,0-8.1118164,52.7266846,8.1118164,77.0621338
									s16.2236328-52.7266846,16.2236328-52.7266846s12.1677246,12.1677246,32.4472656,8.1118164
									s-12.6262207-32.4472656-12.6262207-32.4472656H2661.1347656z"/>
							</g>
						</g>
						<g>
							<path id="reka_lewa_10_" class="st55" d="M2908.5446777,1521.373291c0,0,64.8945313,44.6149902,77.0622559,133.8447266
								h-44.6149902c0,0-4.0559082-24.3353271-32.4472656-73.0062256V1521.373291z"/>
							<g>
								<path class="st56" d="M2961.2832031,1703.9157715l-12.1677246,8.1118164c0,0-8.1118164-12.1677246,12.1677246-24.3354492"/>
								<path class="st56" d="M2965.3391113,1728.2512207c0,0-16.2236328,0-20.279541-8.1118164
									s16.2236328-16.2236328,16.2236328-16.2236328"/>
								<path class="st56" d="M2985.6186523,1655.2449951c0,0,8.1118164,52.7266846-8.1118164,77.0621338
									c-16.2236328,24.3353271-16.2236328-52.7266846-16.2236328-52.7266846s-12.1677246,12.1676025-32.4470215,8.1116943
									c-20.279541-4.0557861,12.1557617-32.4741211,12.1557617-32.4741211L2985.6186523,1655.2449951z"/>
							</g>
						</g>
						<path class="st57" d="M2738.6159668,1687.7635498c22.0444336,5.1882324,50.5344238,9.7683105,84.5187988,9.789917
							c34.1999512,0.0216064,63.2675781-4.614624,85.4003906-9.8237305l0.0097656-166.3563232
							c-21.6137695-5.7369385-51.3608398-11.2982178-86.9226074-11.1109619
							c-33.9221191,0.1787109-62.40625,5.5314941-83.425293,11.1108398L2738.6159668,1687.7635498z"/>
					</g>
				</g>
				<path class="st48" d="M2718.8227539,1561.329834c-6.734375,0.1925049-12.8920898-3.7425537-15.578125-9.9210205
					c-9.2993164-21.3898926-26.1230469-79.6422119-12.8820801-204.6989746
					c2.6525879-25.0524902,13.1069336-69.9036865,69.9038086-96.1175537
					c56.7966309-26.2139893,109.2246094-4.3690186,109.2246094-4.3690186s56.7966309,13.1069336,83.010498,74.2727051
					c20.6435547,48.1680908,22.3208008,85.498291,22.1015625,99.1885986
					c-0.078125,4.8724365,0.1210938,9.7410889,0.6357422,14.5869141
					c1.4992676,14.1152344,7.8457031,52.2458496,34.0595703,87.1977539c0,0-32.2214355,7.0838623-56.796875-26.2138672
					c0,0,7.0288086,54.1202393,8.7380371,61.1656494c0,0-25.3806152-20.6605225-30.5827637-39.3208008l-3.9335938,32.4779053
					c-0.4057617,3.350708-3.2016602,5.9005127-6.5754395,5.9969482L2718.8227539,1561.329834z"/>
			</g>
		</g>
		<g>
			<g>
				<path class="st16" d="M2763.7839355,1717.1645508h122.8374023c12.9321289,0,23.4157715-13.6052246,23.4157715-30.3881836
					v-87.1120605c0-16.782959-10.4836426-30.3881836-23.4157715-30.3881836h-122.8374023
					c-12.9321289,0-23.4157715,13.6052246-23.4157715,30.3881836v87.1120605
					C2740.3681641,1703.5593262,2750.8518066,1717.1645508,2763.7839355,1717.1645508z"/>
				<g>
					<rect x="2817.6054688" y="1663.2790527" class="st52" width="13.9279785" height="83.2324219"/>
					<path class="st52" d="M2859.7426758,1663.2790527h-69.0800781c-6.7697754,0-12.3088379-5.5390625-12.3088379-12.309082l0,0
						c0-6.7698975,5.5390625-12.30896,12.3088379-12.30896h69.0800781c6.7697754,0,12.3088379,5.5390625,12.3088379,12.30896l0,0
						C2872.0515137,1657.7399902,2866.5124512,1663.2790527,2859.7426758,1663.2790527z"/>
				</g>
			</g>
			<g>
				<g>
					<rect x="2764.4255371" y="1759.1732178" class="st52" width="121.5539551" height="11.3956299"/>
					<rect x="2764.4255371" y="1818.0509033" class="st52" width="121.5539551" height="11.3956299"/>
					<rect x="2746.6989746" y="1759.1732178" class="st52" width="17.7265625" height="129.7841797"/>
					<rect x="2885.9794922" y="1759.1732178" class="st52" width="17.7265625" height="129.7841797"/>
				</g>
				<path class="st16" d="M2906.8718262,1759.1732178h-163.3383789c-3.4819336,0-6.3308105-2.848877-6.3308105-6.3309326l0,0
					c0-3.4819336,2.848877-6.3309326,6.3308105-6.3309326h163.3383789c3.4819336,0,6.3308105,2.848999,6.3308105,6.3309326l0,0
					C2913.2026367,1756.3243408,2910.3537598,1759.1732178,2906.8718262,1759.1732178z"/>
			</g>
		</g>
	</g>
	<g>
		<g>
			<g>
				<rect x="835.2271729" y="1616.5709229" class="st51" width="404.4829102" height="104.5102539"/>
				<rect x="1239.710083" y="1618.0247803" class="st52" width="13.5581055" height="228.7927246"/>
				<rect x="821.6690674" y="1618.7078857" class="st52" width="13.5581055" height="228.7927246"/>
				<rect x="807.9362183" y="1599.5006104" class="st16" width="457.5853882" height="19.2072754"/>
			</g>
			<g>
				<g>
					<path id="prawy_but_6_" class="st58" d="M935.4719238,1876.746582
						c-1.878418-3.3759766-2.9534302-6.9935303-2.9534302-10.7790527c0-17.8594971,22.7511597-32.3374023,50.8158569-32.3374023
						c28.0647583,0,50.815918,14.4779053,50.815918,32.3374023c0,3.7855225-1.0750732,7.4030762-2.9534912,10.7790527H935.4719238z"
						/>
					<path id="lewy_but_6_" class="st58" d="M1037.1036377,1876.746582
						c-1.878418-3.3759766-2.9533691-6.9935303-2.9533691-10.7790527c0-17.8594971,22.7510986-32.3374023,50.815918-32.3374023
						c28.0646973,0,50.8157959,14.4779053,50.8157959,32.3374023c0,3.7855225-1.0749512,7.4030762-2.9533691,10.7790527
						H1037.1036377z"/>
				</g>
				<circle id="ucho_prawe_9_" class="st59" cx="916.5598145" cy="1424.0233154" r="27.4377441"/>
				<circle id="ucho_lewe_9_" class="st59" cx="1151.7407227" cy="1424.0233154" r="27.4377441"/>
				<rect id="szyja_11_" x="1020.4312744" y="1537.6942139" class="st59" width="29.397583" height="33.3172607"/>
				<path id="głowa_5_" class="st60" d="M881.2826538,1310.3525391c0,0,19.5983887,15.6787109,23.5180664,15.6787109
					s23.5181274-94.0723877,23.5181274-94.0723877l15.6787109,35.2772217l47.0361938-54.8756104l3.9196777,27.4377441
					l86.2329712-35.2770996l-23.5180664,35.2770996l66.6346436-7.8393555l-15.6787109,23.5181885l70.5541992,7.8393555
					l-27.4377441,11.7590332l50.9558105,47.0361328l-27.4377441,3.9196777l23.5180664,62.7149658l-27.4377441-15.6787109
					l-0.2313232,0.4163818c-10.7941895,19.4295654-17.9162598,40.6165771-21.7561035,62.5090332
					c-10.9648438,62.5146484-58.3759766,109.5405273-115.201416,109.5405273
					c-56.8255005,0-104.2365723-47.0258789-115.201416-109.5404053
					c-5.1519165-29.3728027-13.361145-58.1264648-23.4621582-86.1848145L881.2826538,1310.3525391z"/>
				<rect x="951.8369141" y="1733.6783447" class="st61" width="164.626709" height="125.4298096"/>
				<g>
					<g>
						<path id="reka_prawa_6_" class="st62" d="M951.8369141,1572.9711914c0,0-62.7149048,43.1165771-74.473938,129.3496094
							h43.1165161c0,0,3.9196777-23.5181885,31.3574219-70.5543213V1572.9711914z"/>
						<g>
							<path class="st59" d="M900.8810425,1749.3569336l11.7590942,7.8393555c0,0,7.8393555-11.7590332-11.7590942-23.5180664"/>
							<path class="st59" d="M896.9613647,1772.875c0,0,15.678772,0,19.5984497-7.8393555
								s-15.678772-15.6787109-15.678772-15.6787109"/>
							<path class="st59" d="M877.3629761,1702.3208008c0,0-7.8393555,50.9558105,7.8393555,74.473877
								c15.6787109,23.5181885,15.6787109-50.9558105,15.6787109-50.9558105s11.7590942,11.7590332,31.3574829,7.8393555
								s-12.2020264-31.3574219-12.2020264-31.3574219H877.3629761z"/>
						</g>
					</g>
					<g>
						<path id="reka_lewa_6_" class="st62" d="M1116.463623,1572.9711914c0,0,62.7148438,43.1165771,74.473877,129.3496094
							h-43.1164551c0,0-3.9196777-23.5181885-31.3574219-70.5543213V1572.9711914z"/>
						<g>
							<path class="st59" d="M1167.4307861,1749.3829346l-11.7590332,7.8393555c0,0-7.8393555-11.7590332,11.7590332-23.5180664"/>
							<path class="st59" d="M1171.3504639,1772.901123c0,0-15.6787109,0-19.5983887-7.8393555
								c-3.9196777-7.8394775,15.6787109-15.678833,15.6787109-15.678833"/>
							<path class="st59" d="M1190.9489746,1702.3468018c0,0,7.8393555,50.9558105-7.8393555,74.473999
								c-15.678833,23.5180664-15.678833-50.9559326-15.678833-50.9559326s-11.7590332,11.7590332-31.3574219,7.8393555
								s11.7476807-31.3834229,11.7476807-31.3834229L1190.9489746,1702.3468018z"/>
						</g>
					</g>
					<path class="st62" d="M951.8369141,1733.2593994c0,0.2452393,0.1660767,0.4578857,0.4048462,0.5137939
						c21.2526855,4.9759521,49.0449829,9.4404297,81.6803589,9.4610596
						c32.8431396,0.020874,60.7979736-4.4649658,82.1367188-9.4610596c0.2387695-0.0559082,0.4047852-0.2685547,0.4047852-0.5137939
						v-159.8813477c0-0.239624-0.1585693-0.4488525-0.3902588-0.5101318
						c-20.8551025-5.5074463-49.4591064-10.814209-83.612915-10.6343994
						c-32.5733643,0.1716309-59.958252,5.2797852-80.2330933,10.6343994
						c-0.2316895,0.0611572-0.3904419,0.2703857-0.3904419,0.5100098V1733.2593994z"/>
				</g>
				<line class="st63" x1="1034.1502686" y1="1859.1080322" x2="1034.1502686" y2="1804.0938721"/>
			</g>
		</g>
		<g>
			<g>
				<path class="st16" d="M977.6312256,1717.1645508h122.8372803c12.932251,0,23.4158936-13.6052246,23.4158936-30.3881836
					v-87.1120605c0-16.782959-10.4836426-30.3881836-23.4158936-30.3881836H977.6312256
					c-12.932251,0-23.4158936,13.6052246-23.4158936,30.3881836v87.1120605
					C954.215332,1703.5593262,964.6989746,1717.1645508,977.6312256,1717.1645508z"/>
				<g>
					<rect x="1031.4527588" y="1663.2790527" class="st52" width="13.9281006" height="83.2324219"/>
					<path class="st52" d="M1073.5897217,1663.2790527h-69.0797729c-6.7699585,0-12.309021-5.5390625-12.309021-12.309082l0,0
						c0-6.7698975,5.5390625-12.30896,12.309021-12.30896h69.0797729c6.7700195,0,12.309082,5.5390625,12.309082,12.30896l0,0
						C1085.8988037,1657.7399902,1080.3597412,1663.2790527,1073.5897217,1663.2790527z"/>
				</g>
			</g>
			<g>
				<g>
					<rect x="978.2728882" y="1759.1732178" class="st52" width="121.5540161" height="11.3956299"/>
					<rect x="978.2728882" y="1818.0509033" class="st52" width="121.5540161" height="11.3956299"/>
					<rect x="960.5462646" y="1759.1732178" class="st52" width="17.7266235" height="129.7841797"/>
					<rect x="1099.8267822" y="1759.1732178" class="st52" width="17.7265625" height="129.7841797"/>
				</g>
				<path class="st16" d="M1120.7188721,1759.1732178H957.3807983c-3.4819946,0-6.3309326-2.848877-6.3309326-6.3309326l0,0
					c0-3.4819336,2.848938-6.3309326,6.3309326-6.3309326h163.3380737c3.4820557,0,6.3309326,2.848999,6.3309326,6.3309326l0,0
					C1127.0498047,1756.3243408,1124.2009277,1759.1732178,1120.7188721,1759.1732178z"/>
			</g>
		</g>
	</g>
	<g>
		<g>
			<g>
				<rect x="3188.3435059" y="1616.5709229" class="st51" width="404.4829102" height="104.5102539"/>
				<rect x="3592.826416" y="1618.0247803" class="st52" width="13.5581055" height="228.7927246"/>
				<rect x="3174.7854004" y="1618.7078857" class="st52" width="13.5581055" height="228.7927246"/>
				<rect x="3161.0524902" y="1599.5006104" class="st16" width="457.5854492" height="19.2072754"/>
			</g>
			<g>
				<g>
					<path id="prawy_but_11_" class="st58" d="M3288.5883789,1876.746582
						c-1.878418-3.3759766-2.9536133-6.9935303-2.9536133-10.7790527c0-17.8594971,22.7512207-32.3374023,50.815918-32.3374023
						s50.815918,14.4779053,50.815918,32.3374023c0,3.7855225-1.0749512,7.4030762-2.9533691,10.7790527H3288.5883789z"/>
					<path id="lewy_but_11_" class="st58" d="M3390.2199707,1876.746582
						c-1.878418-3.3759766-2.9533691-6.9935303-2.9533691-10.7790527c0-17.8594971,22.7512207-32.3374023,50.815918-32.3374023
						s50.815918,14.4779053,50.815918,32.3374023c0,3.7855225-1.0749512,7.4030762-2.9533691,10.7790527H3390.2199707z"/>
				</g>
				<circle id="ucho_prawe_13_" class="st59" cx="3269.6762695" cy="1424.0233154" r="27.4377441"/>
				<circle id="ucho_lewe_13_" class="st59" cx="3504.8571777" cy="1424.0233154" r="27.4377441"/>
				<rect id="szyja_15_" x="3373.5476074" y="1537.6942139" class="st59" width="29.3977051" height="33.3172607"/>
				<path id="głowa_7_" class="st60" d="M3234.3989258,1310.3525391c0,0,19.5986328,15.6787109,23.5183105,15.6787109
					s23.5180664-94.0723877,23.5180664-94.0723877l15.6787109,35.2772217l47.0361328-54.8756104l3.9196777,27.4377441
					l86.2329102-35.2770996l-23.5180664,35.2770996l66.6347656-7.8393555l-15.6789551,23.5181885l70.5544434,7.8393555
					l-27.4377441,11.7590332l50.9558105,47.0361328l-27.4377441,3.9196777l23.5180664,62.7149658l-27.4377441-15.6787109
					l-0.2314453,0.4163818c-10.7941895,19.4295654-17.9162598,40.6165771-21.7561035,62.5090332
					c-10.9648438,62.5146484-58.3759766,109.5405273-115.201416,109.5405273s-104.2365723-47.0258789-115.201416-109.5404053
					c-5.1518555-29.3728027-13.361084-58.1264648-23.4621582-86.1848145L3234.3989258,1310.3525391z"/>
				<rect x="3304.953125" y="1733.6783447" class="st61" width="164.626709" height="125.4298096"/>
				<g>
					<g>
						<path id="reka_prawa_11_" class="st62" d="M3304.9533691,1572.9711914c0,0-62.7150879,43.1165771-74.4741211,129.3496094
							h43.1166992c0,0,3.9196777-23.5181885,31.3574219-70.5543213V1572.9711914z"/>
						<g>
							<path class="st59" d="M3253.9975586,1749.3569336l11.7590332,7.8393555c0,0,7.8393555-11.7590332-11.7590332-23.5180664"/>
							<path class="st59" d="M3250.0776367,1772.875c0,0,15.6789551,0,19.5986328-7.8393555
								s-15.6787109-15.6787109-15.6787109-15.6787109"/>
							<path class="st59" d="M3230.479248,1702.3208008c0,0-7.8393555,50.9558105,7.8393555,74.473877
								c15.6789551,23.5181885,15.6789551-50.9558105,15.6789551-50.9558105s11.7590332,11.7590332,31.3574219,7.8393555
								s-12.2021484-31.3574219-12.2021484-31.3574219H3230.479248z"/>
						</g>
					</g>
					<g>
						<path id="reka_lewa_11_" class="st62" d="M3469.579834,1572.9711914c0,0,62.7150879,43.1165771,74.4741211,129.3496094
							H3500.9375c0,0-3.9196777-23.5181885-31.357666-70.5543213V1572.9711914z"/>
						<g>
							<path class="st59" d="M3520.5471191,1749.3829346l-11.7590332,7.8393555c0,0-7.8393555-11.7590332,11.7590332-23.5180664"/>
							<path class="st59" d="M3524.4667969,1772.901123c0,0-15.6787109,0-19.5983887-7.8393555
								c-3.9196777-7.8394775,15.6787109-15.678833,15.6787109-15.678833"/>
							<path class="st59" d="M3544.0651855,1702.3468018c0,0,7.8395996,50.9558105-7.8393555,74.473999
								c-15.6787109,23.5180664-15.6787109-50.9559326-15.6787109-50.9559326s-11.7590332,11.7590332-31.3574219,7.8393555
								s11.7478027-31.3834229,11.7478027-31.3834229L3544.0651855,1702.3468018z"/>
						</g>
					</g>
					<path class="st62" d="M3304.9533691,1733.2593994c0,0.2452393,0.1660156,0.4578857,0.4047852,0.5137939
						c21.2526855,4.9759521,49.0449219,9.4404297,81.6804199,9.4610596
						c32.8430176,0.020874,60.7978516-4.4649658,82.1367188-9.4610596c0.2387695-0.0559082,0.4047852-0.2685547,0.4047852-0.5137939
						v-159.8813477c0-0.239624-0.1586914-0.4488525-0.3903809-0.5101318
						c-20.8549805-5.5074463-49.4589844-10.814209-83.612793-10.6343994
						c-32.5734863,0.1716309-59.958252,5.2797852-80.2331543,10.6343994
						c-0.2316895,0.0611572-0.3903809,0.2703857-0.3903809,0.5100098V1733.2593994z"/>
				</g>
				<line class="st63" x1="3387.2666016" y1="1859.1080322" x2="3387.2666016" y2="1804.0938721"/>
			</g>
		</g>
		<g>
			<g>
				<path class="st16" d="M3330.7475586,1717.1645508h122.8374023c12.9321289,0,23.4157715-13.6052246,23.4157715-30.3881836
					v-87.1120605c0-16.782959-10.4836426-30.3881836-23.4157715-30.3881836h-122.8374023
					c-12.9321289,0-23.4157715,13.6052246-23.4157715,30.3881836v87.1120605
					C3307.3317871,1703.5593262,3317.8154297,1717.1645508,3330.7475586,1717.1645508z"/>
				<g>
					<rect x="3384.5690918" y="1663.2790527" class="st52" width="13.9279785" height="83.2324219"/>
					<path class="st52" d="M3426.7060547,1663.2790527h-69.079834c-6.7697754,0-12.3088379-5.5390625-12.3088379-12.309082l0,0
						c0-6.7698975,5.5390625-12.30896,12.3088379-12.30896h69.079834c6.7700195,0,12.309082,5.5390625,12.309082,12.30896l0,0
						C3439.0151367,1657.7399902,3433.4760742,1663.2790527,3426.7060547,1663.2790527z"/>
				</g>
			</g>
			<g>
				<g>
					<rect x="3331.3891602" y="1759.1732178" class="st52" width="121.5539551" height="11.3956299"/>
					<rect x="3331.3891602" y="1818.0509033" class="st52" width="121.5539551" height="11.3956299"/>
					<rect x="3313.6625977" y="1759.1732178" class="st52" width="17.7265625" height="129.7841797"/>
					<rect x="3452.9431152" y="1759.1732178" class="st52" width="17.7265625" height="129.7841797"/>
				</g>
				<path class="st16" d="M3473.8352051,1759.1732178h-163.3381348c-3.4819336,0-6.3308105-2.848877-6.3308105-6.3309326l0,0
					c0-3.4819336,2.848877-6.3309326,6.3308105-6.3309326h163.3381348c3.4821777,0,6.3310547,2.848999,6.3310547,6.3309326l0,0
					C3480.1662598,1756.3243408,3477.3173828,1759.1732178,3473.8352051,1759.1732178z"/>
			</g>
		</g>
	</g>
	<g>
		<g>
			<g>
				<rect x="2038.7320557" y="1616.5709229" class="st51" width="404.4827881" height="104.5102539"/>
				<rect x="2443.2150879" y="1618.0247803" class="st52" width="13.5581055" height="228.7927246"/>
				<rect x="2025.1739502" y="1618.7078857" class="st52" width="13.5581055" height="228.7927246"/>
				<rect x="2011.4411621" y="1599.5006104" class="st16" width="457.5854492" height="19.2072754"/>
			</g>
			<g>
				<g>
					<path id="prawy_but_9_" class="st58" d="M2138.9768066,1876.746582
						c-1.878418-3.3759766-2.9533691-6.9935303-2.9533691-10.7790527c0-17.8594971,22.7509766-32.3374023,50.815918-32.3374023
						c28.0646973,0,50.8156738,14.4779053,50.8156738,32.3374023c0,3.7855225-1.0749512,7.4030762-2.9533691,10.7790527
						H2138.9768066z"/>
					<path id="lewy_but_9_" class="st58" d="M2240.6086426,1876.746582
						c-1.878418-3.3759766-2.9536133-6.9935303-2.9536133-10.7790527c0-17.8594971,22.7512207-32.3374023,50.815918-32.3374023
						c28.0649414,0,50.815918,14.4779053,50.815918,32.3374023c0,3.7855225-1.0749512,7.4030762-2.9533691,10.7790527H2240.6086426z
						"/>
				</g>
				<circle id="ucho_prawe_10_" class="st59" cx="2120.0646973" cy="1424.0233154" r="27.4377441"/>
				<circle id="ucho_lewe_10_" class="st59" cx="2355.2456055" cy="1424.0233154" r="27.4377441"/>
				<rect id="szyja_12_" x="2223.9360352" y="1537.6942139" class="st59" width="29.3977051" height="33.3172607"/>
				<path id="głowa_6_" class="st50" d="M2084.7875977,1310.3525391c0,0,19.5983887,15.6787109,23.5180664,15.6787109
					s23.5180664-94.0723877,23.5180664-94.0723877l15.6787109,35.2772217l47.0361328-54.8756104l3.9196777,27.4377441
					l86.2331543-35.2770996l-23.5180664,35.2770996l66.6345215-7.8393555l-15.6787109,23.5181885l70.5541992,7.8393555
					l-27.4377441,11.7590332l50.9558105,47.0361328l-27.4377441,3.9196777l23.5180664,62.7149658l-27.4377441-15.6787109
					l-0.2312012,0.4163818c-10.7941895,19.4295654-17.9162598,40.6165771-21.7561035,62.5090332
					c-10.9650879,62.5146484-58.3759766,109.5405273-115.2016602,109.5405273
					c-56.8254395,0-104.2363281-47.0258789-115.201416-109.5404053
					c-5.1518555-29.3728027-13.361084-58.1264648-23.4619141-86.1848145L2084.7875977,1310.3525391z"/>
				<rect x="2155.3415527" y="1733.6783447" class="st61" width="164.626709" height="125.4298096"/>
				<g>
					<g>
						<path id="reka_prawa_9_" class="st62" d="M2155.3417969,1572.9711914c0,0-62.7148438,43.1165771-74.473877,129.3496094
							h43.1164551c0,0,3.9196777-23.5181885,31.3574219-70.5543213V1572.9711914z"/>
						<g>
							<path class="st59" d="M2104.3859863,1749.3569336l11.7590332,7.8393555c0,0,7.8393555-11.7590332-11.7590332-23.5180664"/>
							<path class="st59" d="M2100.4663086,1772.875c0,0,15.6787109,0,19.5983887-7.8393555
								s-15.6787109-15.6787109-15.6787109-15.6787109"/>
							<path class="st59" d="M2080.8679199,1702.3208008c0,0-7.8393555,50.9558105,7.8393555,74.473877
								c15.6787109,23.5181885,15.6787109-50.9558105,15.6787109-50.9558105s11.7590332,11.7590332,31.3574219,7.8393555
								s-12.2021484-31.3574219-12.2021484-31.3574219H2080.8679199z"/>
						</g>
					</g>
					<g>
						<path id="reka_lewa_9_" class="st62" d="M2319.9685059,1572.9711914c0,0,62.7148438,43.1165771,74.473877,129.3496094
							h-43.1164551c0,0-3.9196777-23.5181885-31.3574219-70.5543213V1572.9711914z"/>
						<g>
							<path class="st59" d="M2370.935791,1749.3829346l-11.7590332,7.8393555c0,0-7.8393555-11.7590332,11.7590332-23.5180664"/>
							<path class="st59" d="M2374.8554688,1772.901123c0,0-15.6787109,0-19.5983887-7.8393555
								c-3.9196777-7.8394775,15.6787109-15.678833,15.6787109-15.678833"/>
							<path class="st59" d="M2394.4538574,1702.3468018c0,0,7.8393555,50.9558105-7.8393555,74.473999
								c-15.6787109,23.5180664-15.6787109-50.9559326-15.6787109-50.9559326s-11.7590332,11.7590332-31.3574219,7.8393555
								c-19.5986328-3.9196777,11.7475586-31.3834229,11.7475586-31.3834229L2394.4538574,1702.3468018z"/>
						</g>
					</g>
					<path class="st62" d="M2155.3417969,1733.2593994c0,0.2452393,0.1660156,0.4578857,0.4047852,0.5137939
						c21.2526855,4.9759521,49.045166,9.4404297,81.6804199,9.4610596
						c32.8432617,0.020874,60.7978516-4.4649658,82.1367188-9.4610596c0.2387695-0.0559082,0.4047852-0.2685547,0.4047852-0.5137939
						v-159.8813477c0-0.239624-0.1584473-0.4488525-0.3903809-0.5101318
						c-20.8549805-5.5074463-49.4589844-10.814209-83.612793-10.6343994
						c-32.5732422,0.1716309-59.958252,5.2797852-80.2331543,10.6343994
						c-0.2316895,0.0611572-0.3903809,0.2703857-0.3903809,0.5100098V1733.2593994z"/>
				</g>
				<line class="st63" x1="2237.6550293" y1="1859.1080322" x2="2237.6550293" y2="1804.0938721"/>
			</g>
		</g>
		<g>
			<g>
				<path class="st16" d="M2181.1362305,1717.1645508h122.8371582c12.9321289,0,23.4157715-13.6052246,23.4157715-30.3881836
					v-87.1120605c0-16.782959-10.4836426-30.3881836-23.4157715-30.3881836h-122.8371582
					c-12.932373,0-23.4160156,13.6052246-23.4160156,30.3881836v87.1120605
					C2157.7202148,1703.5593262,2168.2038574,1717.1645508,2181.1362305,1717.1645508z"/>
				<g>
					<rect x="2234.9575195" y="1663.2790527" class="st52" width="13.9279785" height="83.2324219"/>
					<path class="st52" d="M2277.0947266,1663.2790527h-69.079834c-6.7700195,0-12.309082-5.5390625-12.309082-12.309082l0,0
						c0-6.7698975,5.5390625-12.30896,12.309082-12.30896h69.079834c6.7697754,0,12.3088379,5.5390625,12.3088379,12.30896l0,0
						C2289.4035645,1657.7399902,2283.864502,1663.2790527,2277.0947266,1663.2790527z"/>
				</g>
			</g>
			<g>
				<g>
					<rect x="2181.777832" y="1759.1732178" class="st52" width="121.5539551" height="11.3956299"/>
					<rect x="2181.777832" y="1818.0509033" class="st52" width="121.5539551" height="11.3956299"/>
					<rect x="2164.0510254" y="1759.1732178" class="st52" width="17.7265625" height="129.7841797"/>
					<rect x="2303.3317871" y="1759.1732178" class="st52" width="17.7265625" height="129.7841797"/>
				</g>
				<path class="st16" d="M2324.223877,1759.1732178h-163.3381348c-3.4821777,0-6.3310547-2.848877-6.3310547-6.3309326l0,0
					c0-3.4819336,2.848877-6.3309326,6.3310547-6.3309326h163.3381348c3.4819336,0,6.3308105,2.848999,6.3308105,6.3309326l0,0
					C2330.5546875,1756.3243408,2327.7058105,1759.1732178,2324.223877,1759.1732178z"/>
			</g>
		</g>
	</g>
</g>
</svg>
